<?xml version="1.0" standalone="no"?>
<!DOCTYPE svg PUBLIC "-//W3C//DTD SVG 20010904//EN"
 "http://www.w3.org/TR/2001/REC-SVG-20010904/DTD/svg10.dtd">
<svg version="1.0" xmlns="http://www.w3.org/2000/svg"
 width="700.000000pt" height="700.000000pt" viewBox="0 0 700.000000 700.000000"
 preserveAspectRatio="xMidYMid meet">
<metadata>
Created by potrace 1.11, written by Peter Selinger 2001-2013
</metadata>
<g transform="translate(0.000000,700.000000) scale(0.100000,-0.100000)"
fill="#000000" stroke="none">
<path d="M3130 6984 c-632 -67 -1221 -299 -1727 -678 -700 -525 -1178 -1285
-1342 -2136 -49 -254 -56 -330 -56 -670 0 -347 7 -418 61 -695 92 -462 289
-921 567 -1317 226 -322 528 -626 841 -845 478 -336 985 -535 1577 -618 153
-22 580 -31 746 -16 454 41 872 159 1273 360 685 344 1226 888 1565 1576 200
404 304 761 351 1207 22 209 15 633 -15 828 -81 547 -263 1024 -554 1460 -586
877 -1513 1436 -2559 1545 -180 18 -552 18 -728 -1z m-819 -1796 c29 -12 67
-40 92 -68 82 -91 77 -17 77 -1219 0 -629 4 -1121 10 -1201 26 -340 74 -477
228 -641 149 -159 337 -261 592 -321 120 -28 454 -36 595 -14 380 58 680 252
819 529 80 158 96 293 96 814 l0 342 -802 3 -803 3 -49 24 c-63 31 -116 84
-147 147 -35 73 -34 179 5 257 31 64 99 126 163 149 31 10 226 13 1013 13 970
0 975 0 1021 -21 68 -32 119 -82 151 -149 l28 -60 0 -563 c0 -744 -9 -839
-109 -1094 -143 -365 -453 -649 -873 -799 -254 -91 -403 -113 -758 -114 -362
0 -516 22 -771 111 -293 102 -559 292 -727 519 -99 134 -194 356 -231 543 -43
212 -46 301 -46 1477 0 1078 1 1122 19 1169 34 89 118 162 213 186 53 13 136
4 194 -22z m2921 -1 c61 -30 105 -74 140 -140 19 -34 23 -58 23 -127 0 -73 -4
-92 -27 -136 -31 -59 -84 -108 -147 -138 -46 -21 -51 -21 -1026 -21 l-980 0
-58 29 c-64 31 -126 100 -148 163 -22 63 -17 170 11 227 40 83 116 145 205
167 17 4 462 6 990 6 l960 -2 57 -28z"/>
</g>
</svg>
