<?xml version="1.0" standalone="no"?><!DOCTYPE svg PUBLIC "-//W3C//DTD SVG 1.1//EN" "http://www.w3.org/Graphics/SVG/1.1/DTD/svg11.dtd"><svg t="1554704460027" class="icon" style="" viewBox="0 0 1024 1024" version="1.1" xmlns="http://www.w3.org/2000/svg" p-id="8910" xmlns:xlink="http://www.w3.org/1999/xlink" width="200" height="200"><defs><style type="text/css"></style></defs><path d="M809.4 47.9H701.6v392c0 22.6-18.3 41-41 41-22.6 0-41-18.3-41-41v-392H183.8c-38.8 0-70.2 31.4-70.2 70.2v113.5h109.6c22.6 0 41 18.3 41 41 0 22.6-18.3 41-41 41H113.6v85.2h112.6c22.6 0 41 18.3 41 41 0 22.6-18.3 41-41 41H113.6V566h102.6c22.6 0 41 18.3 41 41s-18.3 41-41 41H113.6v85.2h108.6c22.6 0 41 18.3 41 41 0 22.6-18.3 41-41 41H113.6v107.9c0 38.8 31.4 70.2 70.2 70.2h625.5c38.8 0 70.2-31.4 70.2-70.2v-805c0-38.8-31.4-70.2-70.1-70.2z" fill="#242424" p-id="8911"></path></svg>