<?xml version="1.0" encoding="UTF-8"?>
<svg width="160px" height="138px" viewBox="0 0 160 138" version="1.1" xmlns="http://www.w3.org/2000/svg" xmlns:xlink="http://www.w3.org/1999/xlink">
    <!-- Generator: Sketch 52.6 (67491) - http://www.bohemiancoding.com/sketch -->
    <title>favourite</title>
    <desc>Created with Sketch.</desc>
    <g id="Page-1" stroke="none" stroke-width="1" fill="none" fill-rule="evenodd">
        <g id="favourite">
            <path d="M91.3636368,12.6363637 L80.0000005,26.2727273 L68.6363642,12.1818182 C60.9090915,4.45454551 50.454546,0.818181836 40.454546,0.818181836 C30.0000005,0.818181836 19.5454552,4.90909102 11.8181823,12.6363637 C-3.63636317,27.6363637 -3.63636317,52.6363637 11.8181823,68.0909092 L80.0000005,137.181818 L147.727273,67.6363637 C163.181819,52.1818182 163.181819,27.6363637 147.727273,12.1818182 C140.000001,4.45454551 129.545455,0.818181836 119.545455,0.818181836 C109.545455,0.818181836 99.0909095,4.90909102 91.3636368,12.6363637 Z" id="Path" fill="#FFA064"></path>
            <path d="M147.727273,11.6363637 C140,3.90909102 129.545455,0.27272734 119.545455,0.27272734 C109.545455,0.27272734 99.0909095,3.90909102 91.3636368,11.6363637 L80.0000005,25.2727273 C94.0909097,48.4545455 118.181819,64.8181818 146.363637,68.9090908 L148.181819,67.0909092 C163.181819,51.6363637 163.181819,26.6363637 147.727273,11.6363637 Z" id="Path" fill="#FE8350"></path>
        </g>
    </g>
</svg>