<?xml version="1.0" encoding="UTF-8"?>
<svg width="200px" height="200px" viewBox="0 0 200 200" version="1.1" xmlns="http://www.w3.org/2000/svg" xmlns:xlink="http://www.w3.org/1999/xlink">
    <!-- Generator: Sketch 52.6 (67491) - http://www.bohemiancoding.com/sketch -->
    <title>instagram</title>
    <desc>Created with Sketch.</desc>
    <g id="Page-1" stroke="none" stroke-width="1" fill="none" fill-rule="evenodd">
        <g id="instagram">
            <path d="M0,100 C6.76353751e-15,155.228475 44.771525,200 100,200 C155.228475,200 200,155.228475 200,100 C200,44.771525 155.228475,3.38176876e-15 100,0 C44.771525,-3.38176876e-15 6.76353751e-15,44.771525 0,100 Z" id="Path" fill="#A97E57"></path>
            <path d="M146.371094,51.9226563 C134.423047,53.4351562 121.965234,53.3824219 109.427734,52.1886719 C91.9191406,50.8417969 66.3300781,42.7609375 56.9023437,58.9226563 C41.7570312,84.7960938 49.2269531,117.920703 52.75625,147.234375 L105.387891,199.854688 C156.320703,197.150391 197.140234,156.336328 199.853125,105.405469 L146.371094,51.9226563 Z" id="Path" fill="#7B5E3C"></path>
            <path d="M123.135547,42.7609375 L76.8640625,42.7609375 C58.059375,42.7609375 42.7609375,58.059375 42.7609375,76.8640625 L42.7609375,123.135547 C42.7609375,141.939453 58.059375,157.239062 76.8644531,157.239062 L123.135937,157.239062 C141.939844,157.239062 157.239453,141.940234 157.239453,123.135547 L157.239453,76.8640625 C157.239063,58.059375 141.940234,42.7609375 123.135547,42.7609375 Z M145.722656,123.135938 C145.722656,135.610156 135.610156,145.722656 123.135937,145.722656 L76.8644531,145.722656 C64.3902344,145.722656 54.2777344,135.610156 54.2777344,123.135938 L54.2777344,76.8644531 C54.2777344,64.3902344 64.3902344,54.2773438 76.8644531,54.2773438 L123.135937,54.2773438 C135.610156,54.2773438 145.722656,64.390625 145.722656,76.8644531 L145.722656,123.135938 Z" id="Shape" fill="#FFFFFF" fill-rule="nonzero"></path>
            <path d="M100,70.3914063 C83.6742188,70.3914063 70.3914063,83.6742187 70.3914063,100 C70.3914063,116.324609 83.6742187,129.607422 100,129.607422 C116.325781,129.607422 129.607422,116.325781 129.607422,100 C129.607422,83.6742187 116.325781,70.3914063 100,70.3914063 Z M100,118.091016 C90.0082031,118.091016 81.9078125,109.992188 81.9078125,100 C81.9078125,90.0078125 90.0082031,81.9078125 100,81.9078125 C109.991797,81.9078125 118.091016,90.0074219 118.091016,100 C118.091016,109.991797 109.991797,118.091016 100,118.091016 Z" id="Shape" fill="#FFFFFF" fill-rule="nonzero"></path>
            <path d="M136.758984,70.6148438 C136.758984,74.5328125 133.582422,77.7097656 129.664062,77.7097656 C125.746094,77.7097656 122.569141,74.5328125 122.569141,70.6148438 C122.569141,66.6964844 125.746094,63.5199219 129.664062,63.5199219 C133.583203,63.5199219 136.758984,66.6957031 136.758984,70.6148438 Z" id="Path" fill="#D1D1D1"></path>
            <path d="M123.135938,42.7609375 L99.7757813,42.7609375 L99.7757813,54.2773437 L123.135938,54.2773437 C135.610156,54.2773437 145.722656,64.390625 145.722656,76.8644531 L145.722656,123.135937 C145.722656,135.610156 135.610156,145.722656 123.135938,145.722656 L99.7757813,145.722656 L99.7757813,157.239063 L123.135938,157.239063 C141.939844,157.239063 157.239063,141.940234 157.239063,123.135547 L157.239063,76.8640625 C157.239063,58.059375 141.940234,42.7609375 123.135938,42.7609375 Z" id="Path" fill="#D1D1D1"></path>
            <path d="M100,70.3914063 C99.9246094,70.3914063 99.8511719,70.396875 99.7757812,70.396875 L99.7757812,81.9132812 C99.8503906,81.9125 99.9246094,81.9078125 100,81.9078125 C109.991797,81.9078125 118.091016,90.0074219 118.091016,100 C118.091016,109.991797 109.992188,118.091016 100,118.091016 C99.9246094,118.091016 99.8503906,118.086328 99.7757812,118.085547 L99.7757812,129.601953 C99.8511719,129.602734 99.9246094,129.607422 100,129.607422 C116.325781,129.607422 129.607422,116.325391 129.607422,100 C129.607422,83.6742187 116.325781,70.3914062 100,70.3914062 Z" id="Path" fill="#D1D1D1"></path>
        </g>
    </g>
</svg>