<?xml version="1.0" encoding="UTF-8"?>
<svg width="470px" height="406px" viewBox="0 0 470 406" version="1.1" xmlns="http://www.w3.org/2000/svg" xmlns:xlink="http://www.w3.org/1999/xlink">
    <!-- Generator: Sketch 52.6 (67491) - http://www.bohemiancoding.com/sketch -->
    <title>invisible</title>
    <desc>Created with Sketch.</desc>
    <g id="Page-1" stroke="none" stroke-width="1" fill="none" fill-rule="evenodd">
        <g id="invisible" fill="#8D8C8C">
            <path d="M231.147,128.373 L298.347,195.573 L298.667,192.053 C298.667,156.746 269.974,128.053 234.667,128.053 L231.147,128.373 Z" id="Path"></path>
            <path d="M234.667,85.387 C293.547,85.387 341.334,133.174 341.334,192.054 C341.334,205.814 338.561,218.934 333.761,230.987 L396.161,293.387 C428.374,266.507 453.761,231.734 469.441,192.054 C432.428,98.401 341.441,32.054 234.668,32.054 C204.801,32.054 176.215,37.387 149.655,46.987 L195.735,92.96 C207.787,88.267 220.907,85.387 234.667,85.387 Z" id="Path"></path>
            <path d="M21.333,27.253 L69.973,75.893 L79.68,85.6 C44.48,113.12 16.64,149.707 0,192.053 C36.907,285.706 128,352.053 234.667,352.053 C267.734,352.053 299.307,345.653 328.214,334.026 L337.281,343.093 L399.468,405.386 L426.668,378.293 L48.533,0.053 L21.333,27.253 Z M139.307,145.12 L172.267,178.08 C171.307,182.667 170.667,187.253 170.667,192.053 C170.667,227.36 199.36,256.053 234.667,256.053 C239.467,256.053 244.054,255.413 248.534,254.453 L281.494,287.413 C267.307,294.453 251.521,298.72 234.667,298.72 C175.787,298.72 128,250.933 128,192.053 C128,175.2 132.267,159.413 139.307,145.12 Z" id="Shape" fill-rule="nonzero"></path>
        </g>
    </g>
</svg>