<?xml version="1.0" encoding="UTF-8"?>
<svg width="135px" height="38px" viewBox="0 0 135 38" version="1.1" xmlns="http://www.w3.org/2000/svg" xmlns:xlink="http://www.w3.org/1999/xlink">
    <!-- Generator: Sketch 52.6 (67491) - http://www.bohemiancoding.com/sketch -->
    <title>logo</title>
    <desc>Created with Sketch.</desc>
    <g id="Page-1" stroke="none" stroke-width="1" fill="none" fill-rule="evenodd">
        <g id="logo">
            <circle id="background-pattern" fill="#2A6EA8" cx="19" cy="19" r="19"></circle>
            <g id="foreground-pattern" transform="translate(10.000000, 9.000000)" fill="#FFFFFF">
                <g id="Group-Copy-4" transform="translate(0.203125, 0.656250)">
                    <path d="M15.9505208,8.44238387 L19.140625,8.44238387 L19.140625,11.9810549 C19.140625,13.6938862 19.1326154,14.9864694 18.8816071,15.8588431 C18.6305987,16.7312168 18.3208484,17.4572974 17.9523468,18.0371068 C17.5838452,18.6169161 17.132571,19.1355452 16.5985107,19.5930094 C14.8254306,21.1143441 12.5076437,21.875 9.64508057,21.875 C6.7291114,21.875 4.38996243,21.1196634 2.62756348,19.6089674 C2.09350319,19.1408644 1.64222902,18.6169161 1.27372742,18.0371068 C0.905225819,17.4572974 0.600816021,16.7471746 0.360488892,15.906717 C0.120161762,15.0662594 0,13.7470799 0,11.949139 L0,1.82291667 L3.28125,1.82291667 L3.28125,11.9810549 C3.28125,14.0768796 3.46069096,15.5343601 3.94134521,16.3535403 C4.42199947,17.1727205 5.15365109,17.8296506 6.13632202,18.3243504 C7.11899295,18.8190501 8.27788639,19.0663962 9.61303711,19.0663962 C11.5142917,19.0663962 13.0630433,18.5717039 14.2593384,17.5823045 C14.8895295,17.0503693 15.343474,16.4226952 15.6211853,15.6992633 C15.8988967,14.9758314 15.9505208,13.736441 15.9505208,11.9810549 L15.9505208,8.44238387 Z" id="U-Copy-4"></path>
                    <path d="M1.640625,0 L1.68619792,1.11022302e-15 C2.56712086,9.48400106e-16 3.28125,0.714129143 3.28125,1.59505208 C3.28125,1.59505208 3.28125,1.59505208 3.28125,1.59505208 C3.28125,2.03559028 3.28125,2.47612847 3.28125,2.91666667 C3.28125,3.82275883 2.54671717,4.55729167 1.640625,4.55729167 C0.734532832,4.55729167 3.25294766e-14,3.82275883 3.24185123e-14,2.91666667 L3.19744231e-14,1.640625 C3.18634588e-14,0.734532832 0.734532832,1.66446431e-16 1.640625,0 Z" id="Rectangle"></path>
                    <rect id="Rectangle" x="16.40625" y="6.8359375" width="2.734375" height="7.29166667" rx="1.3671875"></rect>
                </g>
                <rect id="Rectangle-2" x="6.21875" y="0.65625" width="13.125" height="3.28125" rx="1.640625"></rect>
                <rect id="Rectangle-2" x="6.21875" y="7.21875" width="13.125" height="3.28125" rx="1.640625"></rect>
            </g>
            <path d="M59.824,13.792 C58.9759958,13.792 58.3680018,13.6720012 58,13.432 C57.5679978,13.1919988 57.2720008,12.7600031 57.112,12.136 L56.44,9.664 L59.584,9.664 L60.28,12.28 C60.4080006,12.7920026 60.7439973,13.048 61.288,13.048 L62.56,13.048 L62.56,13.792 L59.824,13.792 Z M41.392,17.224 L41.392,16.456 L42.544,16.456 C43.2640036,16.4399999 43.7119991,16.0800035 43.888,15.376 L45.256,9.232 L48.4,9.232 L47.152,14.92 C46.9279989,15.8800048 46.4800034,16.5199984 45.808,16.84 C45.2959974,17.0960013 44.5760046,17.224 43.648,17.224 L41.392,17.224 Z M43.768,29.944 L43.768,18.4 L46.768,18.4 L46.768,29.944 L43.768,29.944 Z M59.32,29.944 C58.2959949,29.9600001 57.5760021,29.768002 57.16,29.368 C56.759998,28.9999982 56.56,28.3920042 56.56,27.544 L56.56,16.84 L59.584,16.84 L59.584,28.048 C59.6000001,28.7840037 59.9359967,29.1599999 60.592,29.176 L62.8,29.176 L62.8,29.944 L59.32,29.944 Z M48.352,15.544 L48.352,14.8 L51.448,14.8 L51.64,9.232 L54.688,9.232 L54.472,14.8 L62.776,14.8 L62.776,15.544 L54.448,15.544 L54.04,27.304 C54.0079998,28.2320046 53.7600023,28.895998 53.296,29.296 C52.8159976,29.7280022 52.1200046,29.944 51.208,29.944 L48.256,29.944 L48.256,29.176 L49.84,29.176 C50.5440035,29.1599999 50.9279997,28.752004 50.992,27.952 L51.424,15.544 L48.352,15.544 Z M78.2172308,11.392 L77.4972308,15.184 L82.2972308,15.184 L81.6012308,11.416 C81.45723,10.8879974 81.1372332,10.6080002 80.6412308,10.576 L79.2012308,10.576 C78.6892282,10.6240002 78.3612315,10.8959975 78.2172308,11.392 Z M81.4332308,29.176 C82.3132352,29.1439998 82.7692306,28.6880044 82.8012308,27.808 L82.8012308,22.192 C82.7372304,21.2959955 82.281235,20.8240002 81.4332308,20.776 L78.3612308,20.776 C77.5292266,20.8560004 77.0732312,21.3279957 76.9932308,22.192 L76.9932308,27.808 C77.0092308,28.7040045 77.4732262,29.1599999 78.3852308,29.176 L81.4332308,29.176 Z M65.4732308,14.656 L65.4732308,13.864 L68.0412308,13.864 L68.0412308,9.232 L70.9932308,9.232 L70.9932308,13.864 L73.1292308,13.864 L73.1292308,14.656 L70.9932308,14.656 L70.9932308,20.464 L73.1292308,19.792 L73.1292308,20.584 L70.9932308,21.256 L70.9932308,26.992 C70.9932308,28.1280057 70.6972337,28.9199978 70.1052308,29.368 C69.561228,29.7520019 68.7372363,29.944 67.6332308,29.944 L65.7372308,29.944 L65.7372308,29.176 L66.8892308,29.176 C67.6092344,29.1279998 67.9932305,28.7520035 68.0412308,28.048 L68.0412308,22.192 L65.4972308,22.984 L65.4972308,22.192 L68.0412308,21.4 L68.0412308,14.656 L65.4732308,14.656 Z M72.9372308,18.808 L72.9372308,18.04 L73.3932308,18.04 C73.7932328,18.0239999 74.0492302,17.7680025 74.1612308,17.272 L75.1452308,11.968 C75.2732314,11.2959966 75.5532286,10.7840018 75.9852308,10.432 C76.5132334,10.0159979 77.2092264,9.808 78.0732308,9.808 L81.7932308,9.808 C82.5932348,9.808 83.2332284,9.97599832 83.7132308,10.312 C84.1932332,10.6480017 84.50523,11.1759964 84.6492308,11.896 L85.6332308,17.224 C85.7292312,17.7520026 86.0092284,18.0239999 86.4732308,18.04 L86.8092308,18.04 L86.8092308,18.808 L85.2732308,18.808 C84.6332276,18.808 84.0812331,18.6880012 83.6172308,18.448 C83.0892281,18.1279984 82.7692313,17.6560031 82.6572308,17.032 L82.4412308,15.952 L77.3532308,15.952 L77.1372308,17.056 C77.0092301,17.6800031 76.7292329,18.1279986 76.2972308,18.4 C75.8492285,18.6720014 75.297234,18.808 74.6412308,18.808 L72.9372308,18.808 Z M76.8732308,29.944 C75.913226,29.944 75.1852332,29.6960025 74.6892308,29.2 C74.2092284,28.7679978 73.9692308,28.0880046 73.9692308,27.16 L73.9692308,22.936 C73.9692308,21.9759952 74.2812276,21.2560024 74.9052308,20.776 C75.4652336,20.2639974 76.2332259,20.008 77.2092308,20.008 L82.6812308,20.008 C83.6412356,20.008 84.401228,20.2319978 84.9612308,20.68 C85.5372336,21.1760025 85.8252308,21.9119951 85.8252308,22.888 L85.8252308,27.088 C85.8252308,28.0160046 85.5852332,28.7119977 85.1052308,29.176 C84.5932282,29.6880026 83.8332358,29.944 82.8252308,29.944 L76.8732308,29.944 Z M99.3224615,11.728 L99.3224615,13.888 L102.010462,13.888 L102.010462,10.576 L100.522462,10.576 C99.7384576,10.5920001 99.3384616,10.9759962 99.3224615,11.728 Z M106.426462,10.576 L104.914462,10.576 L104.914462,13.888 L107.626462,13.888 L107.626462,11.728 C107.578461,11.0079964 107.178465,10.6240002 106.426462,10.576 Z M99.3224615,16.888 C99.3224615,17.6400038 99.7064577,18.016 100.474462,18.016 L102.010462,18.016 L102.010462,14.632 L99.3224615,14.632 L99.3224615,16.888 Z M106.522462,18.016 C107.242465,17.9999999 107.610461,17.6240037 107.626462,16.888 L107.626462,14.632 L104.914462,14.632 L104.914462,18.016 L106.522462,18.016 Z M93.4664615,14.152 C92.6984577,14.152 92.0984637,14.0240013 91.6664615,13.768 C91.2344594,13.5279988 90.9224625,13.112003 90.7304615,12.52 L89.6744615,9.208 L92.7704615,9.208 L93.8744615,12.688 C94.0504624,13.1680024 94.3784591,13.408 94.8584615,13.408 L95.6024615,13.408 L95.6024615,14.152 L93.4664615,14.152 Z M96.0584615,28.96 L96.0584615,28.192 L96.5384615,28.192 C97.0664642,28.192 97.3704611,27.9360026 97.4504615,27.424 L98.1464615,22.72 L100.738462,22.72 L100.042462,27.184 C99.930461,27.8400033 99.6584637,28.2959987 99.2264615,28.552 C98.8424596,28.8240014 98.2904651,28.96 97.5704615,28.96 L96.0584615,28.96 Z M109.330462,28.96 C108.674458,28.96 108.130464,28.8320013 107.698462,28.576 C107.266459,28.2879986 106.986462,27.8240032 106.858462,27.184 L106.186462,22.72 L108.778462,22.72 L109.450462,27.424 C109.530462,27.9680027 109.834459,28.2240002 110.362462,28.192 L110.866462,28.192 L110.866462,28.96 L109.330462,28.96 Z M92.1944615,29.896 C91.5064581,29.6719989 91.1544616,29.1360042 91.1384615,28.288 L91.1384615,17.824 C91.1224615,17.1519966 90.8264644,16.8080001 90.2504615,16.792 L89.4104615,16.792 L89.4104615,16.024 L91.4744615,16.024 C92.370466,16.024 93.0264595,16.2559977 93.4424615,16.72 C93.7784632,17.1040019 93.9464615,17.6799962 93.9464615,18.448 L93.9464615,27.616 C93.9464615,27.808001 94.002461,27.9359997 94.1144615,28 C94.2264621,28.0480002 94.3464609,28.0160006 94.4744615,27.904 L95.8664615,26.608 L95.8664615,27.544 L93.9944615,29.32 C93.4504588,29.8480026 92.8504648,30.0400007 92.1944615,29.896 Z M99.8024615,18.784 C98.7464563,18.784 97.9944638,18.5600022 97.5464615,18.112 C97.0984593,17.6639978 96.8744615,16.9760046 96.8744615,16.048 L96.8744615,12.352 C96.8744615,11.5359959 97.130459,10.9120022 97.6424615,10.48 C98.1704642,10.0319978 98.890457,9.808 99.8024615,9.808 L107.170462,9.808 C108.082466,9.808 108.778459,9.99199816 109.258462,10.36 C109.802464,10.7760021 110.074462,11.4399954 110.074462,12.352 L110.074462,16.048 C110.074462,17.0240049 109.826464,17.7359978 109.330462,18.184 C108.882459,18.584002 108.162466,18.784 107.170462,18.784 L104.914462,18.784 L104.914462,20.56 L110.698462,20.56 L110.698462,21.328 L104.914462,21.328 L104.914462,29.92 L102.010462,29.92 L102.010462,21.328 L96.1064615,21.328 L96.1064615,20.56 L102.010462,20.56 L102.010462,18.784 L99.8024615,18.784 Z M118.363692,12.688 C117.739689,12.7040001 117.267694,12.6320008 116.947692,12.472 C116.53169,12.2959991 116.259693,12.0400017 116.131692,11.704 L115.315692,9.688 L118.483692,9.688 L119.107692,11.272 C119.283693,11.7200022 119.61969,11.9360001 120.115692,11.92 L121.003692,11.92 L121.003692,12.688 L118.363692,12.688 Z M127.219692,12.688 L127.219692,11.92 L128.107692,11.92 C128.619695,11.9360001 128.955692,11.7200022 129.115692,11.272 L129.739692,9.688 L132.907692,9.688 L132.115692,11.68 C131.987692,12.0160017 131.747694,12.2639992 131.395692,12.424 C131.075691,12.616001 130.523696,12.7040001 129.739692,12.688 L127.219692,12.688 Z M128.395692,22.288 C129.051696,22.2719999 129.387692,21.9200034 129.403692,21.232 L129.403692,19.36 C129.403692,18.6719966 129.067696,18.328 128.395692,18.328 L119.851692,18.328 C119.179689,18.3440001 118.835692,18.6799967 118.819692,19.336 L118.819692,21.28 C118.819692,21.9520034 119.163689,22.288 119.851692,22.288 L128.395692,22.288 Z M113.827692,16.984 L113.827692,15.808 C113.827692,15.1839969 114.02769,14.7040017 114.427692,14.368 C114.859694,13.9999982 115.459688,13.816 116.227692,13.816 L122.515692,13.816 L122.515692,9.232 L125.707692,9.232 L125.707692,13.816 L131.707692,13.816 C132.667697,13.816 133.36369,13.9999982 133.795692,14.368 C134.195694,14.6880016 134.395692,15.1679968 134.395692,15.808 L134.395692,16.984 L131.347692,16.984 L131.347692,15.664 C131.363692,14.9119962 130.947697,14.5439999 130.099692,14.56 L118.099692,14.56 C117.267688,14.5439999 116.859692,14.8959964 116.875692,15.616 L116.875692,16.984 L113.827692,16.984 Z M117.979692,23.032 C117.243689,23.032 116.699694,22.8880014 116.347692,22.6 C115.97969,22.2799984 115.795692,21.8080031 115.795692,21.184 L115.795692,19.408 C115.795692,18.815997 115.97969,18.3600016 116.347692,18.04 C116.699694,17.7359985 117.235689,17.584 117.955692,17.584 L130.171692,17.584 C130.939696,17.584 131.499691,17.7279986 131.851692,18.016 C132.235694,18.3200015 132.427692,18.7839969 132.427692,19.408 L132.427692,21.16 C132.427692,21.7840031 132.267694,22.2319986 131.947692,22.504 C131.57969,22.8560018 130.987696,23.032 130.171692,23.032 L125.731692,23.032 L125.731692,25.336 L133.339692,25.336 L133.339692,26.08 L125.731692,26.08 L125.731692,29.176 L134.827692,29.176 L134.827692,29.944 L113.395692,29.944 L113.395692,29.176 L122.467692,29.176 L122.467692,26.08 L114.883692,26.08 L114.883692,25.336 L122.467692,25.336 L122.467692,23.032 L117.979692,23.032 Z" id="优拾课堂" fill="#292525"></path>
        </g>
    </g>
</svg>