<?xml version="1.0" encoding="UTF-8"?>
<svg width="512px" height="512px" viewBox="0 0 512 512" version="1.1" xmlns="http://www.w3.org/2000/svg" xmlns:xlink="http://www.w3.org/1999/xlink">
    <!-- Generator: Sketch 52.6 (67491) - http://www.bohemiancoding.com/sketch -->
    <title>logout</title>
    <desc>Created with Sketch.</desc>
    <g id="Page-1" stroke="none" stroke-width="1" fill="none" fill-rule="evenodd">
        <g id="logout">
            <path d="M298.667969,277.335938 C263.382812,277.335938 234.667969,248.621094 234.667969,213.335938 C234.667969,178.050781 263.382812,149.335938 298.667969,149.335938 L341.332031,149.335938 L341.332031,64.003906 C341.332031,28.71875 312.617188,0.00390625 277.332031,0.00390625 L48,0.00390625 C40.980469,0.00390625 34.410156,3.457031 30.421875,9.238281 C26.453125,15.019531 25.558594,22.382812 28.074219,28.929688 L182.742188,434.265625 C185.878906,442.542969 193.8125,448.003906 202.667969,448.003906 L277.332031,448.003906 C312.617188,448.003906 341.332031,419.289062 341.332031,384.003906 L341.332031,277.335938 L298.667969,277.335938 Z" id="Path" fill="#BC061D"></path>
            <path d="M397.164062,318.382812 C389.207031,315.074219 384,307.289062 384,298.667969 L384,234.667969 L298.667969,234.667969 C286.890625,234.667969 277.332031,225.113281 277.332031,213.335938 C277.332031,201.558594 286.890625,192.003906 298.667969,192.003906 L384,192.003906 L384,128.003906 C384,119.382812 389.207031,111.597656 397.164062,108.289062 C405.140625,104.984375 414.316406,106.820312 420.414062,112.921875 L505.75,198.253906 C514.089844,206.59375 514.089844,220.078125 505.75,228.417969 L420.414062,313.753906 C414.316406,319.851562 405.140625,321.6875 397.164062,318.382812 Z" id="Path" fill="#BC061D"></path>
            <path d="M184.449219,44.84375 L56.257812,2.113281 C27.328125,-6.78125 0,14.574219 0,42.667969 L0,426.667969 C0,444.910156 11.605469,461.1875 28.886719,467.160156 L157.054688,509.890625 C161.769531,511.339844 166.101562,512.003906 170.667969,512.003906 C194.199219,512.003906 213.332031,492.867188 213.332031,469.335938 L213.332031,85.335938 C213.332031,67.097656 201.726562,50.820312 184.449219,44.84375 Z" id="Path" fill="#F65468"></path>
        </g>
    </g>
</svg>