<?xml version="1.0" encoding="UTF-8"?>
<svg width="196px" height="196px" viewBox="0 0 196 196" version="1.1" xmlns="http://www.w3.org/2000/svg" xmlns:xlink="http://www.w3.org/1999/xlink">
    <!-- Generator: Sketch 52.6 (67491) - http://www.bohemiancoding.com/sketch -->
    <title>logout</title>
    <desc>Created with Sketch.</desc>
    <g id="Page-1" stroke="none" stroke-width="1" fill="none" fill-rule="evenodd">
        <g id="logout" transform="translate(0.343750, 0.343750)">
            <path d="M0,97.65625 C8.67361738e-15,151.590308 43.7221924,195.3125 97.65625,195.3125 C151.590308,195.3125 195.3125,151.590308 195.3125,97.65625 C195.3125,43.7221924 151.590308,3.46944695e-15 97.65625,0 C43.7221924,-3.46944695e-15 8.67361738e-15,43.7221924 0,97.65625 Z" id="Path" fill="#DB2828"></path>
            <path d="M90.6050781,55.3394531 C90.6050781,51.4623047 93.7757813,48.2851563 97.653125,48.2851563 C101.530273,48.2851563 104.707422,51.4623047 104.707422,55.3394531 L104.707422,94.1253906 C104.707422,98.0025391 101.530273,101.180469 97.653125,101.180469 C93.7759766,101.180469 90.6050781,98.0033203 90.6050781,94.1253906 L90.6050781,55.3394531 Z" id="Path" fill="#FFFFFF"></path>
            <path d="M97.653125,147.027344 C72.3400391,147.027344 51.8126953,126.498633 51.8126953,101.186328 C51.8126953,82.1173828 63.4640625,65.778125 80.0302734,58.8664062 L80.0302734,74.7974609 C71.5167969,80.4896484 65.9214844,90.1771484 65.9214844,101.186328 C65.9214844,118.712109 80.1271484,132.924219 97.6595703,132.924219 C115.198242,132.924219 129.404102,118.718555 129.404102,101.186328 C129.404102,90.1835937 123.795898,80.4966797 115.282422,74.7974609 L115.282422,58.8599609 C131.861523,65.7714844 143.5,82.1109375 143.5,101.180469 C143.499805,126.498633 122.972461,147.027344 97.653125,147.027344 Z" id="Path" fill="#FFFFFF"></path>
        </g>
    </g>
</svg>