<?xml version="1.0" encoding="UTF-8"?>
<svg width="140px" height="38px" viewBox="0 0 140 38" version="1.1" xmlns="http://www.w3.org/2000/svg" xmlns:xlink="http://www.w3.org/1999/xlink">
    <!-- Generator: Sketch 52.6 (67491) - http://www.bohemiancoding.com/sketch -->
    <title>logo</title>
    <desc>Created with Sketch.</desc>
    <defs>
        <path d="M13.1398992,7.94105263 C12.9415601,10.684926 12.739092,12.6056085 12.5324888,13.7031579 C12.3258855,14.8007072 11.9953253,15.805434 11.5407983,16.7173684 C11.0862712,17.6293028 10.4375468,18.5170132 9.59460564,19.3805263 C8.7516645,20.2440394 7.65255184,21.143855 6.29723471,22.08 L5.9749353,21.6684211 C7.82610016,20.0382375 9.13594494,18.2345713 9.90450892,16.2573684 C10.6730729,14.2801656 11.0821412,11.508088 11.1317259,7.94105263 L8.25582346,7.94105263 C7.8095605,7.94105263 7.46247229,7.99754329 7.21454843,8.11052632 L6.7682877,7.09368421 C7.11538111,7.17438637 7.52858136,7.21473684 8.00790083,7.21473684 L11.1317259,7.21473684 C11.1647824,6.23017052 11.1813104,5.16895306 11.1813104,4.03105263 C11.1813104,2.89315221 11.1565184,1.55755153 11.1069337,0.0242105263 C11.9829313,0.217895705 12.7018997,0.391402742 13.2638605,0.544736842 C13.8258213,0.698070942 14.1563815,0.798947126 14.255551,0.847368421 C14.3547206,0.895789716 14.4043046,0.952280379 14.4043046,1.01684211 C14.4043046,1.12982513 14.1233284,1.36385787 13.5613677,1.71894737 C13.4456699,3.93018649 13.3217098,5.762098 13.1894837,7.21473684 L18.7429506,7.21473684 L19.635472,5.88315789 C19.8172828,5.59263013 20.019751,5.44736842 20.2428824,5.44736842 C20.4660139,5.44736842 20.9411942,5.79034745 21.6684375,6.47631579 C22.3956809,7.16228413 22.7592971,7.57789401 22.7592971,7.72315789 C22.7592971,7.86842178 22.594017,7.94105263 22.2634518,7.94105263 L16.2885166,7.94105263 L16.2885166,18.8357895 C16.2885166,19.2554407 16.3711566,19.5096487 16.5364392,19.5984211 C16.7017218,19.6871934 17.2925981,19.7315789 18.309086,19.7315789 C19.3255738,19.7315789 19.9453742,19.6428079 20.1685057,19.4652632 C20.3916371,19.2877184 20.5941053,18.8801786 20.7759161,18.2426316 C20.9577269,17.6050845 21.147799,16.5680774 21.3461381,15.1315789 L21.8171911,15.1315789 C21.8171911,16.4228135 21.8750392,17.3710496 21.990737,17.9763158 C22.1064348,18.581582 22.3419589,18.9770166 22.6973164,19.1626316 C23.052674,19.3482465 23.2303501,19.5096484 23.2303501,19.6468421 C23.2303501,19.7840358 23.135314,19.9857881 22.9452391,20.2521053 C22.7551641,20.5184224 22.51964,20.7564902 22.2386596,20.9663158 C21.9576792,21.1761414 21.697363,21.309298 21.4577033,21.3657895 C21.2180436,21.422281 20.7263353,21.4707016 19.9825637,21.5110526 C19.2387921,21.5514037 18.4082596,21.5715789 17.4909413,21.5715789 C16.573623,21.5715789 15.9001066,21.5271934 15.4703719,21.4384211 C15.0406372,21.3496487 14.739001,21.1640365 14.5654543,20.8815789 C14.3919076,20.5991214 14.3051355,20.0866704 14.3051355,19.3442105 L14.3051355,7.94105263 L13.1398992,7.94105263 Z M3.7188394,9.44210526 C2.62797439,11.0238676 1.4792777,12.4119239 0.272714889,13.6063158 L0,13.34 C2.56187995,9.57927944 4.40475304,5.17300772 5.52867457,0.121052632 C6.55342655,0.460001695 7.33437501,0.766665295 7.87154339,1.04105263 C8.40871176,1.31543997 8.67729192,1.51719234 8.67729192,1.64631579 C8.67729192,1.77543924 8.47895581,1.88842057 8.08227762,1.98526316 C7.78476898,2.04982488 7.39636075,2.62683666 6.91704128,3.71631579 C6.4377218,4.80579492 5.85097745,5.94771333 5.15679063,7.14210526 C5.80139268,7.4164926 6.12368887,7.61420992 6.12368887,7.73526316 C6.12368887,7.85631639 5.97493678,8.00561315 5.67742814,8.18315789 L5.67742814,21.3052632 C5.67742814,21.4021057 5.66503214,21.4828067 5.64023975,21.5473684 C5.61544736,21.6119301 5.45843127,21.7208764 5.16918676,21.8742105 C4.87994225,22.0275446 4.59070208,22.144561 4.30145757,22.2252632 C4.01221306,22.3059653 3.82627295,22.3463158 3.74363166,22.3463158 C3.66099037,22.3463158 3.61967034,22.2575447 3.61967034,22.08 L3.69404713,19.8042105 C3.71057539,19.0940315 3.7188394,18.4242137 3.7188394,17.7947368 L3.7188394,9.44210526 Z M15.4951641,1.30736842 C16.8504813,1.72701964 17.8504259,2.12648933 18.4950279,2.50578947 C19.13963,2.88508962 19.4619262,3.33297987 19.4619262,3.84947368 C19.4619262,4.36596749 19.3049101,4.80578766 18.9908732,5.16894737 C18.6768363,5.53210708 18.3875961,5.71368421 18.123144,5.71368421 C17.8586919,5.71368421 17.6355637,5.43123089 17.4537529,4.86631579 C17.2388855,4.1561368 16.9620414,3.56701988 16.6232121,3.09894737 C16.2843828,2.63087485 15.8339945,2.15473926 15.2720338,1.67052632 L15.4951641,1.30736842 Z M39.9803841,3.22 C38.3110301,6.65791193 35.8731487,9.74875821 32.6666667,12.4926316 L32.2699905,12.2021053 C33.7244771,10.6364834 34.9558139,8.91351817 35.9640376,7.03315789 C36.9722613,5.15279762 37.8895659,2.83264538 38.7159787,0.0726315789 C39.7737872,0.411580642 40.5258117,0.673858721 40.9720746,0.859473684 C41.4183376,1.04508865 41.6414657,1.19035035 41.6414657,1.29526316 C41.6414657,1.40017596 41.4844496,1.4970171 41.1704128,1.58578947 C40.8563759,1.67456185 40.5919277,1.95298012 40.3770603,2.42105263 C42.3604513,6.00422844 44.8644448,8.2154344 47.8891159,9.05473684 L47.8891159,9.46631579 C47.1618726,9.56315838 46.6619003,9.67613971 46.389184,9.80526316 C46.1164678,9.93438661 45.8809436,10.1684194 45.6826046,10.5073684 C45.583435,10.6687727 45.4677389,10.7494737 45.3355129,10.7494737 C45.0380042,10.7494737 44.2818478,10.1079012 43.0670208,8.82473684 C41.8521939,7.54157253 40.8233253,5.6733456 39.9803841,3.22 Z M28.6503201,6.65789474 L26.0967171,6.65789474 C25.6835106,6.65789474 25.3281584,6.69824521 25.0306498,6.77894737 L24.6091813,5.83473684 C24.9562747,5.915439 25.369475,5.95578947 25.8487944,5.95578947 L28.6503201,5.95578947 L28.6503201,2.90526316 C28.6503201,1.96911813 28.6337921,1.09754789 28.6007356,0.290526316 C30.6832961,0.855441421 31.7245607,1.26701625 31.7245607,1.52526316 C31.7245607,1.67052704 31.4022645,1.92069998 30.7576624,2.27578947 L30.7576624,5.95578947 L31.5014303,5.95578947 L32.3691595,4.86631579 C32.5344421,4.67263061 32.6831942,4.57578947 32.8154202,4.57578947 C32.9476463,4.57578947 33.1542464,4.70491099 33.4352268,4.96315789 L34.3525405,5.78631579 C34.6831057,6.07684356 34.8483858,6.29473612 34.8483858,6.44 C34.8483858,6.58526388 34.6500497,6.65789474 34.2533715,6.65789474 L30.7576624,6.65789474 L30.7576624,9.87789474 L33.9806566,8.32842105 L34.2285792,8.74 L30.7576624,11.1126316 L30.7576624,19.5621053 C30.7576624,20.0463182 30.7204744,20.4256127 30.6460973,20.7 C30.5717201,20.9743873 30.40644,21.2245603 30.150252,21.4505263 C29.894064,21.6764924 29.4891278,21.902455 28.9354311,22.1284211 C28.3817345,22.3543871 28.0429103,22.4673684 27.9189484,22.4673684 C27.7949864,22.4673684 27.6916864,22.346317 27.6090451,22.1042105 C27.410706,21.4747337 27.1297298,20.9985981 26.7661082,20.6757895 C26.4024865,20.3529808 25.7165741,20.0140369 24.7083504,19.6589474 L24.8818962,19.1263158 C26.3859677,19.4007031 27.3445922,19.5378947 27.7577987,19.5378947 C28.1710051,19.5378947 28.4230573,19.4814041 28.5139627,19.3684211 C28.6048681,19.255438 28.6503201,19.0456156 28.6503201,18.7389474 L28.6503201,12.5652632 C27.7412659,13.2108804 27.0305615,13.8080674 26.5181855,14.3568421 C26.4024877,14.4859656 26.3074517,14.5505263 26.2330745,14.5505263 C26.1586974,14.5505263 26.0182093,14.4335099 25.811606,14.1994737 C25.6050028,13.9654374 25.1628786,13.3884257 24.48522,12.4684211 C26.1049893,11.9519272 27.4933421,11.419301 28.6503201,10.8705263 L28.6503201,6.65789474 Z M41.1456205,9.95052632 L41.7406348,9.05473684 C41.9059174,8.8287708 42.0464055,8.71578947 42.1621033,8.71578947 C42.2778011,8.71578947 42.4967972,8.86912127 42.8190982,9.17578947 C43.1413992,9.48245767 43.4430354,9.75684089 43.7240158,9.99894737 C44.0049962,10.2410538 44.1454843,10.426666 44.1454843,10.5557895 C44.1454843,10.6849129 44.0132602,10.7494737 43.7488081,10.7494737 L37.1044817,10.7494737 C36.6582187,10.7494737 36.3111305,10.7978943 36.0632066,10.8947368 L35.6169459,9.82947368 C35.9640393,9.91017584 36.3772396,9.95052632 36.8565591,9.95052632 L41.1456205,9.95052632 Z M42.4844027,20.0705263 L37.1540662,20.0705263 L37.1540662,21.4263158 C37.1540662,21.6522818 37.1127462,21.8056136 37.0301049,21.8863158 C36.9474636,21.9670179 36.6251674,22.1082446 36.0632066,22.31 C35.5012459,22.5117554 35.1789497,22.6126316 35.0963084,22.6126316 C35.0136671,22.6126316 34.9723471,22.5561409 34.9723471,22.4431579 L35.0219316,21.3294737 C35.0549881,20.8775416 35.0715161,20.4578967 35.0715161,20.0705263 L35.0715161,14.4536842 C35.0715161,13.7757861 35.0467241,13.089828 34.9971394,12.3957895 C36.1871739,12.7993003 37.1127425,13.1624545 37.7738728,13.4852632 L42.1621033,13.4852632 L42.6579485,12.5410526 C42.7405898,12.3957887 42.8438899,12.3231579 42.9678518,12.3231579 C43.0918137,12.3231579 43.4389019,12.4805247 44.0091268,12.7952632 C44.5793517,13.1100016 44.9470999,13.3238591 45.1123825,13.4368421 C45.2776651,13.5498251 45.3603051,13.6749116 45.3603051,13.8121053 C45.3603051,13.9492989 45.137177,14.1712265 44.690914,14.4778947 L44.690914,19.2231579 L44.7404986,20.9421053 C44.7404986,21.11965 44.6743865,21.2568416 44.5421605,21.3536842 C44.4099344,21.4505268 44.0959022,21.5957885 43.6000545,21.7894737 C43.1042068,21.9831589 42.7819106,22.08 42.6331562,22.08 C42.5339867,22.08 42.4844027,21.9670187 42.4844027,21.7410526 L42.4844027,20.0705263 Z M37.1540662,19.2473684 L42.4844027,19.2473684 L42.4844027,14.26 L37.1540662,14.26 L37.1540662,19.2473684 Z M51.8463425,0.290526316 C53.548753,1.21053092 54.6933177,1.90052402 55.2800708,2.36052632 C55.866824,2.82052862 56.1601962,3.27648897 56.1601962,3.72842105 C56.1601962,4.18035314 55.96186,4.65245368 55.5651819,5.14473684 C55.1685037,5.63702001 54.8544715,5.88315789 54.6230759,5.88315789 C54.4743216,5.88315789 54.3668895,5.84684247 54.3007765,5.77421053 C54.2346634,5.70157858 54.0859113,5.28193366 53.8545157,4.51526316 C53.6231201,3.74859266 53.329748,3.0707047 52.9743904,2.48157895 C52.6190329,1.89245319 52.1438526,1.25895076 51.5488353,0.581052632 L51.8463425,0.290526316 Z M63.126822,15.2526316 C62.0194287,16.8828152 60.854204,18.2224509 59.6311129,19.2715789 C58.4080219,20.320707 56.8791809,21.3133287 55.0445443,22.2494737 L54.7966217,21.9105263 C58.2179711,19.4248999 60.5401564,16.6084368 61.7632475,13.4610526 L57.746901,13.4610526 C57.3171663,13.4610526 56.9618141,13.5014031 56.6808337,13.5821053 L56.2593652,12.6863158 C56.6064586,12.7670179 57.0196589,12.8073684 57.4989783,12.8073684 L63.126822,12.8073684 L63.126822,9.78105263 L60.4492576,9.78105263 L60.4492576,10.4347368 C60.4492576,10.5961412 60.3748815,10.7292977 60.2261272,10.8342105 C60.0773729,10.9391233 59.7922647,11.0682448 59.3707942,11.2215789 C58.9493236,11.374913 58.6311594,11.4515789 58.4162921,11.4515789 C58.3171225,11.4515789 58.2758025,11.3870182 58.2923307,11.2578947 C58.374972,10.370171 58.4162921,9.26456802 58.4162921,7.94105263 L58.4162921,2.51789474 C58.4162921,1.83999661 58.3915,1.15403856 58.3419153,0.46 C59.4327803,0.815089495 60.2178607,1.15403347 60.6971802,1.47684211 L68.0604822,1.47684211 L68.6307043,0.605263158 C68.7464021,0.427718411 68.8744941,0.338947368 69.0149843,0.338947368 C69.1554745,0.338947368 69.5893348,0.556839926 70.3165781,0.992631579 C71.0438215,1.42842323 71.4074377,1.73912188 71.4074377,1.92473684 C71.4074377,2.11035181 71.0438215,2.37262988 70.3165781,2.71157895 L70.3165781,7.52947368 C70.3165781,8.38491656 70.3248421,8.95789328 70.3413704,9.24842105 L70.3661626,10.0715789 C70.3661626,10.2007024 70.2835226,10.3136837 70.11824,10.4105263 C69.9529574,10.5073689 69.6678493,10.6203502 69.262907,10.7494737 C68.8579646,10.8785971 68.5645925,10.9431579 68.3827816,10.9431579 C68.2670838,10.9431579 68.2092358,10.8221065 68.2092358,10.58 L68.2092358,9.78105263 L65.0110339,9.78105263 L65.0110339,12.8073684 L69.2753031,12.8073684 L70.0934478,11.6936842 C70.2422021,11.499999 70.3868222,11.4031579 70.5273124,11.4031579 C70.6678025,11.4031579 71.0768708,11.6735061 71.7545294,12.2142105 C72.4321879,12.754915 72.7710121,13.097894 72.7710121,13.2431579 C72.7710121,13.3884218 72.630524,13.4610526 72.3495437,13.4610526 L66.2754393,13.4610526 C67.0192109,15.1396575 67.8910634,16.4510479 68.891023,17.3952632 C69.8909826,18.3394784 71.3495795,19.1989435 73.2668574,19.9736842 L73.1676883,20.3852632 C72.5396145,20.3529823 72.0272462,20.3852627 71.630568,20.4821053 C71.2338899,20.5789479 70.8372176,20.8210507 70.4405394,21.2084211 C70.3248416,21.3214041 70.2174096,21.3778947 70.11824,21.3778947 C69.8537879,21.3778947 69.1513475,20.6959717 68.0108977,19.3321053 C66.8704479,17.9682388 66.0853674,16.0112408 65.6556327,13.4610526 L65.0110339,13.4610526 L65.0110339,19.4894737 C65.0110339,20.0705292 65.0275619,20.6677162 65.0606184,21.2810526 L65.0854107,22.08 C65.0854107,22.2575447 64.7961705,22.4552621 64.2176815,22.6731579 C63.6391925,22.8910537 63.3003683,23 63.2011987,23 C63.1020292,23 63.0524452,22.9273691 63.0524452,22.7821053 L63.1020297,21.5473684 C63.118558,20.9501725 63.126822,20.2642144 63.126822,19.4894737 L63.126822,15.2526316 Z M60.4492576,5.35052632 L63.126822,5.35052632 L63.126822,2.15473684 L60.4492576,2.15473684 L60.4492576,5.35052632 Z M65.0110339,5.35052632 L68.2092358,5.35052632 L68.2092358,2.15473684 L65.0110339,2.15473684 L65.0110339,5.35052632 Z M63.126822,6.02842105 L60.4492576,6.02842105 L60.4492576,9.10315789 L63.126822,9.10315789 L63.126822,6.02842105 Z M68.2092358,6.02842105 L65.0110339,6.02842105 L65.0110339,9.10315789 L68.2092358,9.10315789 L68.2092358,6.02842105 Z M52.6892794,17.4073684 L52.6892794,9.05473684 L50.8050674,9.05473684 C50.5075588,9.05473684 50.2348466,9.09508732 49.9869228,9.17578947 L49.3175317,8.20736842 C49.5985121,8.28807058 49.9456003,8.32842105 50.3588067,8.32842105 L52.5901103,8.32842105 L53.1355401,7.38421053 C53.2677662,7.15824448 53.3958583,7.04526316 53.5198202,7.04526316 C53.6437821,7.04526316 54.0569824,7.25912067 54.7594333,7.68684211 C55.4618843,8.11456354 55.8131045,8.41315705 55.8131045,8.58263158 C55.8131045,8.75210611 55.4825443,9.00631409 54.821414,9.34526316 L54.821414,17.5284211 L57.8956545,15.4221053 L58.217954,15.8336842 C56.7304108,17.3508848 55.6560901,18.4887681 54.9949598,19.2473684 C54.3338295,20.0059687 53.7140291,20.7806978 53.1355401,21.5715789 C53.0198423,21.7168428 52.9289383,21.7894737 52.8628252,21.7894737 C52.7967122,21.7894737 52.6149041,21.6078966 52.3173954,21.2447368 C52.0198868,20.8815771 51.7058546,20.441757 51.3752895,19.9252632 C51.9041937,19.3280672 52.2554139,18.8640367 52.4289606,18.5331579 C52.6025073,18.202279 52.6892794,17.8270196 52.6892794,17.4073684 Z M85.2319847,6.22210526 L85.2319847,2.59052632 C85.2319847,1.29929179 85.2154567,0.435791653 85.1824002,0 C85.7608892,0.0968425895 86.3393696,0.2340342 86.9178586,0.411578947 C87.4963476,0.589123695 87.8682278,0.718245211 88.0335104,0.798947368 C88.198793,0.879649526 88.281433,0.968420568 88.281433,1.06526316 C88.281433,1.16210575 87.9839289,1.39613849 87.3889116,1.76736842 L87.3889116,6.22210526 L88.4797711,6.22210526 C89.5210514,4.85016858 90.52926,3.19579916 91.5044272,1.25894737 C92.4465379,1.72701988 93.1407143,2.0861391 93.5869773,2.33631579 C94.0332402,2.58649248 94.2563683,2.7842098 94.2563683,2.92947368 C94.2563683,3.12315886 94.0001842,3.23614019 93.4878082,3.26842105 C93.2233561,3.28456148 92.9258519,3.43789328 92.5952867,3.72842105 C91.7854021,4.42245961 90.7358735,5.25367937 89.4466694,6.22210526 L93.9836535,6.22210526 L95.0497207,5.15684211 C95.0993055,5.10842081 95.1571536,5.08421053 95.2232666,5.08421053 C95.3389644,5.08421053 95.6777886,5.31824327 96.2397494,5.78631579 L97.4049857,6.80315789 C97.619853,6.99684307 97.7272851,7.18245525 97.7272851,7.36 C97.7272851,7.53754475 97.466969,7.64245598 96.9463288,7.67473684 C96.4256887,7.70701771 95.9463764,7.8684196 95.5083776,8.15894737 C95.0703788,8.44947514 94.3224863,9.15157338 93.2646778,10.2652632 L92.8184171,10.0231579 L94.2811606,6.97263158 L78.7364119,6.97263158 C78.7033554,8.21544481 78.4347753,9.13543561 77.9306634,9.73263158 C77.4265515,10.3298275 76.8439392,10.6284211 76.1828089,10.6284211 C75.8191872,10.6284211 75.521683,10.5436851 75.2902874,10.3742105 C75.0588918,10.204736 74.9431957,9.99087848 74.9431957,9.73263158 C74.9431957,9.47438467 75.2406999,9.13947574 75.8357172,8.72789474 C76.4307345,8.31631373 76.9100468,7.79175757 77.2736684,7.15421053 C77.6372901,6.51666348 77.9100023,5.72982924 78.0918131,4.79368421 L78.5380738,4.79368421 C78.6207151,5.24561629 78.6785632,5.72175188 78.7116197,6.22210526 L85.2319847,6.22210526 Z M79.3314262,1.79157895 C80.5214608,2.08210672 81.3891813,2.34841984 81.9346138,2.59052632 C82.4800463,2.83263279 82.8353985,3.08684077 83.0006811,3.35315789 C83.1659637,3.61947502 83.2486037,3.95841899 83.2486037,4.37 C83.2486037,4.78158101 83.1370397,5.14473527 82.9139082,5.45947368 C82.6907767,5.7742121 82.4800446,5.93157895 82.2817055,5.93157895 C82.0833664,5.93157895 81.9428783,5.89122847 81.860237,5.81052632 C81.7775957,5.72982416 81.6701637,5.54421198 81.5379376,5.25368421 C81.0586181,4.20455616 80.2487457,3.17158403 79.1082959,2.15473684 L79.3314262,1.79157895 Z M82.7775507,9.03052632 L89.8433456,9.03052632 L90.5623212,8.20736842 C90.678019,8.07824497 90.7813191,8.01368421 90.8722245,8.01368421 C90.9631299,8.01368421 91.3432741,8.22350667 92.0126686,8.64315789 C92.682063,9.06280912 93.0167552,9.33315729 93.0167552,9.45421053 C93.0167552,9.57526376 92.7853631,9.76491099 92.3225719,10.0231579 L92.3225719,12.88 C92.3225719,13.2189491 92.3308359,13.5094725 92.3473641,13.7515789 L92.3969486,14.3568421 C92.3969486,14.4698251 92.3267046,14.5707013 92.1862144,14.6594737 C92.0457242,14.7482461 91.752352,14.8692975 91.3060891,15.0226316 C90.8598261,15.1759657 90.5375299,15.2526316 90.3391908,15.2526316 C90.2400213,15.2526316 90.1904373,15.1719306 90.1904373,15.0105263 L90.1904373,14.26 L87.5128729,14.26 L87.5128729,16.9231579 L91.677973,16.9231579 L92.4713254,15.7852632 C92.6035515,15.591578 92.7275116,15.4947368 92.8432094,15.4947368 C92.9589072,15.4947368 93.1407153,15.591578 93.3886391,15.7852632 C93.636563,15.9789483 93.9381992,16.2250862 94.2935567,16.5236842 C94.6489143,16.8222822 94.8885704,17.0361397 95.0125324,17.1652632 C95.1364943,17.2943866 95.1984743,17.3992978 95.1984743,17.48 C95.1984743,17.6414043 95.0662502,17.7221053 94.8017981,17.7221053 L87.5128729,17.7221053 L87.5128729,20.7968421 L93.9836535,20.7968421 L94.975344,19.3926316 C95.10757,19.2312273 95.2315301,19.1505263 95.3472279,19.1505263 C95.4629257,19.1505263 95.5951498,19.1989469 95.7439041,19.2957895 L96.8099714,20.1673684 C97.3884604,20.6677218 97.7314166,20.9663153 97.8388503,21.0631579 C97.946284,21.1600005 98,21.2568416 98,21.3536842 C98,21.5150885 97.8760399,21.5957895 97.6281161,21.5957895 L77.1992916,21.5957895 C76.7530287,21.5957895 76.4059405,21.64421 76.1580166,21.7410526 L75.7117559,20.6757895 C76.0588493,20.7564916 76.4720495,20.7968421 76.951369,20.7968421 L85.3063615,20.7968421 L85.3063615,17.7221053 L79.5545566,17.7221053 C79.1082936,17.7221053 78.7612054,17.7705258 78.5132816,17.8673684 L78.0670208,16.8021053 C78.4141143,16.8828074 78.8273145,16.9231579 79.306634,16.9231579 L85.3063615,16.9231579 L85.3063615,14.26 L82.7279662,14.26 C82.7279662,14.5343873 82.6701182,14.7199995 82.5544204,14.8168421 C82.4387226,14.9136847 82.1329544,15.0347361 81.6371067,15.18 C81.1412589,15.3252639 80.7941707,15.3978947 80.5958316,15.3978947 C80.5297186,15.3978947 80.4966626,15.333334 80.4966626,15.2042105 L80.5214548,14.3568421 C80.5379831,14.0985952 80.5462471,13.824212 80.5462471,13.5336842 L80.5462471,9.97473684 C80.5462471,9.29683872 80.5214551,8.61088066 80.4718703,7.91684211 C81.1991137,8.15894858 81.9676661,8.53017294 82.7775507,9.03052632 Z M90.1904373,13.5094737 L90.1904373,9.78105263 L82.7279662,9.78105263 L82.7279662,13.5094737 L90.1904373,13.5094737 Z" id="path-1"></path>
    </defs>
    <g id="Page-1" stroke="none" stroke-width="1" fill="none" fill-rule="evenodd">
        <g id="logo">
            <circle id="background-pattern" fill="#2A6EA8" cx="19" cy="19" r="19"></circle>
            <g id="foreground-pattern" transform="translate(10.000000, 9.000000)" fill="#FFFFFF">
                <g id="Group-Copy-4" transform="translate(0.203125, 0.656250)">
                    <path d="M15.9505208,8.44238387 L19.140625,8.44238387 L19.140625,11.9810549 C19.140625,13.6938862 19.1326154,14.9864694 18.8816071,15.8588431 C18.6305987,16.7312168 18.3208484,17.4572974 17.9523468,18.0371068 C17.5838452,18.6169161 17.132571,19.1355452 16.5985107,19.5930094 C14.8254306,21.1143441 12.5076437,21.875 9.64508057,21.875 C6.7291114,21.875 4.38996243,21.1196634 2.62756348,19.6089674 C2.09350319,19.1408644 1.64222902,18.6169161 1.27372742,18.0371068 C0.905225819,17.4572974 0.600816021,16.7471746 0.360488892,15.906717 C0.120161762,15.0662594 0,13.7470799 0,11.949139 L0,1.82291667 L3.28125,1.82291667 L3.28125,11.9810549 C3.28125,14.0768796 3.46069096,15.5343601 3.94134521,16.3535403 C4.42199947,17.1727205 5.15365109,17.8296506 6.13632202,18.3243504 C7.11899295,18.8190501 8.27788639,19.0663962 9.61303711,19.0663962 C11.5142917,19.0663962 13.0630433,18.5717039 14.2593384,17.5823045 C14.8895295,17.0503693 15.343474,16.4226952 15.6211853,15.6992633 C15.8988967,14.9758314 15.9505208,13.736441 15.9505208,11.9810549 L15.9505208,8.44238387 Z" id="U-Copy-4"></path>
                    <path d="M1.640625,0 L1.68619792,1.11022302e-15 C2.56712086,9.48400106e-16 3.28125,0.714129143 3.28125,1.59505208 C3.28125,1.59505208 3.28125,1.59505208 3.28125,1.59505208 C3.28125,2.03559028 3.28125,2.47612847 3.28125,2.91666667 C3.28125,3.82275883 2.54671717,4.55729167 1.640625,4.55729167 C0.734532832,4.55729167 3.25294766e-14,3.82275883 3.24185123e-14,2.91666667 L3.19744231e-14,1.640625 C3.18634588e-14,0.734532832 0.734532832,1.66446431e-16 1.640625,0 Z" id="Rectangle"></path>
                    <rect id="Rectangle" x="16.40625" y="6.8359375" width="2.734375" height="7.29166667" rx="1.3671875"></rect>
                </g>
                <rect id="Rectangle-2" x="6.21875" y="0.65625" width="13.125" height="3.28125" rx="1.640625"></rect>
                <rect id="Rectangle-2" x="6.21875" y="7.21875" width="13.125" height="3.28125" rx="1.640625"></rect>
            </g>
            <g id="优拾课堂" transform="translate(42.000000, 8.000000)" fill="#000000">
                <g>
                    <use xlink:href="#path-1"></use>
                    <use xlink:href="#path-1"></use>
                </g>
            </g>
        </g>
    </g>
</svg>