<?xml version="1.0" encoding="UTF-8"?>
<svg width="50px" height="32px" viewBox="0 0 50 32" version="1.1" xmlns="http://www.w3.org/2000/svg" xmlns:xlink="http://www.w3.org/1999/xlink">
    <!-- Generator: Sketch 52.6 (67491) - http://www.bohemiancoding.com/sketch -->
    <title>05</title>
    <desc>Created with Sketch.</desc>
    <g id="Page-1" stroke="none" stroke-width="1" fill="none" fill-rule="evenodd">
        <path d="M11.712862,31.87 C8.24236699,31.87 5.42263212,30.3934523 3.25357277,27.4403125 C1.08451341,24.4871727 0,20.6522501 0,15.9354297 C0,11.1639215 1.08795631,7.31532713 3.26390157,4.38953125 C5.43984683,1.46373537 8.30433939,0.000859375 11.8574652,0.000859375 C15.3830474,0.000859375 18.2372113,1.46031744 20.4200424,4.37927734 C22.6028736,7.29823725 23.6942728,11.122906 23.6942728,15.8533984 C23.6942728,20.7069383 22.6028736,24.589712 20.4200424,27.5018359 C18.2372113,30.4139599 15.3348468,31.87 11.712862,31.87 Z M11.7748348,28.0760547 C15.3968196,28.0760547 17.2077849,24.0292202 17.2077849,15.9354297 C17.2077849,7.84163922 15.4243628,3.79480469 11.8574652,3.79480469 C8.29056759,3.79480469 6.50714553,7.83480335 6.50714553,15.9149219 C6.50714553,24.0223843 8.26302439,28.0760547 11.7748348,28.0760547 Z M31.09421,30.9881641 L31.09421,26.5789844 C33.6970812,27.5770362 35.866108,28.0760547 37.6013555,28.0760547 C39.3503748,28.0760547 40.7378634,27.5599466 41.7638629,26.5277148 C42.7898624,25.4954831 43.3028545,24.0975479 43.3028545,22.3338672 C43.3028545,17.9861892 40.1560441,15.8123828 33.862329,15.8123828 C33.1186515,15.8123828 32.3749852,15.8739056 31.6313077,15.9969531 L31.6313077,0.759648438 L49.1902719,0.759648438 L49.1902719,5.55847656 L36.0933504,5.55847656 L35.7834863,12.1004688 C40.190464,12.1004688 43.6299208,12.9959676 46.1019599,14.7869922 C48.573999,16.5780168 49.81,19.0799449 49.81,22.2928516 C49.81,25.2596633 48.7289295,27.5975305 46.566756,29.3065234 C44.4045826,31.0155164 41.4436888,31.87 37.6839859,31.87 C36.0864565,31.87 33.8898865,31.5760576 31.09421,30.9881641 Z" id="05" fill="#292525"></path>
    </g>
</svg>