<?xml version="1.0" encoding="UTF-8"?>
<svg width="50px" height="32px" viewBox="0 0 50 32" version="1.1" xmlns="http://www.w3.org/2000/svg" xmlns:xlink="http://www.w3.org/1999/xlink">
    <!-- Generator: Sketch 52.6 (67491) - http://www.bohemiancoding.com/sketch -->
    <title>04</title>
    <desc>Created with Sketch.</desc>
    <g id="Page-1" stroke="none" stroke-width="1" fill="none" fill-rule="evenodd">
        <path d="M11.6612766,31.87 C8.20606626,31.87 5.39874996,30.3934523 3.2392435,27.4403125 C1.07973704,24.4871727 0,20.6522501 0,15.9354297 C0,11.1639215 1.08316477,7.31532713 3.24952681,4.38953125 C5.41588885,1.46373537 8.26776572,0.000859375 11.805243,0.000859375 C15.3152979,0.000859375 18.1568916,1.46031744 20.3301092,4.37927734 C22.5033268,7.29823725 23.5899193,11.122906 23.5899193,15.8533984 C23.5899193,20.7069383 22.5033268,24.589712 20.3301092,27.5018359 C18.1568916,30.4139599 15.2673096,31.87 11.6612766,31.87 Z M11.7229765,28.0760547 C15.3290095,28.0760547 17.131999,24.0292202 17.131999,15.9354297 C17.131999,7.84163922 15.3564314,3.79480469 11.805243,3.79480469 C8.25405457,3.79480469 6.478487,7.83480335 6.478487,15.9149219 C6.478487,24.0223843 8.22663268,28.0760547 11.7229765,28.0760547 Z M40.9252178,31.1112109 L40.9252178,23.010625 L26.7136797,23.010625 L26.7136797,18.4578906 L40.6784183,0.759648438 L46.2519738,0.759648438 L46.2519738,18.4578906 L49.81,18.4578906 L49.81,23.010625 L46.2519738,23.010625 L46.2519738,31.1112109 L40.9252178,31.1112109 Z M31.5879699,18.4578906 L41.0486176,18.4578906 L41.0486176,6.56335938 L31.5879699,18.4578906 Z" id="04" fill="#292525"></path>
    </g>
</svg>