<?xml version="1.0" encoding="UTF-8"?>
<svg width="50px" height="32px" viewBox="0 0 50 32" version="1.1" xmlns="http://www.w3.org/2000/svg" xmlns:xlink="http://www.w3.org/1999/xlink">
    <!-- Generator: Sketch 52.6 (67491) - http://www.bohemiancoding.com/sketch -->
    <title>03</title>
    <desc>Created with Sketch.</desc>
    <g id="Page-1" stroke="none" stroke-width="1" fill="none" fill-rule="evenodd">
        <path d="M11.6725146,31.87 C8.21397443,31.87 5.40395273,30.394362 3.24236515,27.4430418 C1.08077758,24.4917216 0,20.6591618 0,15.9452476 C0,11.1766793 1.08420862,7.33045621 3.25265838,4.40646302 C5.42110814,1.48246984 8.27573335,0.0204951768 11.8166197,0.0204951768 C15.3300573,0.0204951768 18.1743894,1.47905401 20.3497013,4.39621543 C22.5250132,7.31337686 23.6126529,11.1356891 23.6126529,15.8632669 C23.6126529,20.7138163 22.5250132,24.5941977 20.3497013,27.5045273 C18.1743894,30.414857 15.2820227,31.87 11.6725146,31.87 Z M11.7342739,28.0783923 C15.343782,28.0783923 17.148509,24.0340512 17.148509,15.9452476 C17.148509,7.85644401 15.3712304,3.81210289 11.8166197,3.81210289 C8.26200899,3.81210289 6.48473031,7.84961236 6.48473031,15.9247524 C6.48473031,24.0272195 8.23456067,28.0783923 11.7342739,28.0783923 Z M29.9234937,30.8862315 L29.9234937,26.3363023 C32.9428541,27.4977014 35.4337891,28.0783923 37.3963734,28.0783923 C39.221714,28.0783923 40.6867681,27.6138396 41.7915795,26.6847203 C42.8963909,25.7556009 43.4487884,24.519071 43.4487884,22.9750932 C43.4487884,18.971682 40.5049561,16.9700064 34.6172033,16.9700064 L32.7438367,16.9700064 L32.7438367,13.3423601 L34.328993,13.321865 C39.846188,13.321865 42.6047441,11.5251391 42.6047441,7.93163344 C42.6047441,5.18526601 40.9029483,3.81210289 37.4993056,3.81210289 C35.2622341,3.81210289 32.8742303,4.37913045 30.3352226,5.51320257 L30.3352226,1.37317685 C33.0114739,0.457721039 35.8317887,0 38.7962517,0 C41.9391314,0 44.399187,0.642175786 46.1764924,1.92654662 C47.9537977,3.21091746 48.8424371,4.98714836 48.8424371,7.2552926 C48.8424371,10.8351347 46.598537,13.3628479 42.1106694,14.838508 C47.2435821,16.0135707 49.81,18.7462336 49.81,23.0365788 C49.81,25.7556192 48.780688,27.9075912 46.7220332,29.4925595 C44.6633784,31.0775278 41.8636498,31.87 38.3227635,31.87 C35.3171274,31.87 32.5173988,31.5420804 29.9234937,30.8862315 Z" id="03" fill="#292525"></path>
    </g>
</svg>