<?xml version="1.0" encoding="UTF-8"?>
<svg width="50px" height="32px" viewBox="0 0 50 32" version="1.1" xmlns="http://www.w3.org/2000/svg" xmlns:xlink="http://www.w3.org/1999/xlink">
    <!-- Generator: Sketch 52.6 (67491) - http://www.bohemiancoding.com/sketch -->
    <title>02</title>
    <desc>Created with Sketch.</desc>
    <g id="Page-1" stroke="none" stroke-width="1" fill="none" fill-rule="evenodd">
        <path d="M11.5592224,31.8691406 C8.13425049,31.8691406 5.35150255,30.3925929 3.21089511,27.4394531 C1.07028767,24.4863134 0,20.6513908 0,15.9345703 C0,11.1630621 1.07368541,7.31446775 3.22108843,4.38867188 C5.36849145,1.462876 8.19540999,0 11.7019288,0 C15.1812654,0 17.9979907,1.45945806 20.1521893,4.37841797 C22.3063879,7.29737788 23.3834711,11.1220467 23.3834711,15.8525391 C23.3834711,20.706079 22.3063879,24.5888526 20.1521893,27.5009766 C17.9979907,30.4131005 15.133697,31.8691406 11.5592224,31.8691406 Z M11.6203823,28.0751953 C15.194857,28.0751953 16.9820675,24.0283608 16.9820675,15.9345703 C16.9820675,7.84077984 15.2220389,3.79394531 11.7019288,3.79394531 C8.18181883,3.79394531 6.42179022,7.83394397 6.42179022,15.9140625 C6.42179022,24.0215249 8.15463692,28.0751953 11.6203823,28.0751953 Z M29.5252976,31.1103516 L29.5252976,26.3115234 L29.8514837,25.8603516 C31.4688316,23.6865126 33.126928,21.8544996 34.8258228,20.3642578 L37.2926057,18.1699219 C41.3563621,14.5605288 43.3882098,11.3955214 43.3882098,8.67480469 C43.3882098,5.50291383 41.5942038,3.91699219 38.006138,3.91699219 C35.7907792,3.91699219 33.2220888,4.66893779 30.2999897,6.17285156 L30.2999897,1.72265625 C33.3715915,0.574213008 36.3412151,0 39.2089495,0 C42.4164629,0 44.9851533,0.762199409 46.9150977,2.28662109 C48.8450422,3.81104278 49.81,5.85154972 49.81,8.40820312 C49.81,10.1718838 49.3411121,11.7783131 48.4033221,13.2275391 C47.4655322,14.6767651 45.8142312,16.3583889 43.4493697,18.2724609 L41.4107061,19.9130859 C38.570154,22.2099724 36.8848757,24.3427636 36.3548205,26.3115234 L49.6876802,26.3115234 L49.6876802,31.1103516 L29.5252976,31.1103516 Z" id="02" fill="#292525"></path>
    </g>
</svg>