<?xml version="1.0" encoding="UTF-8"?>
<svg width="50px" height="32px" viewBox="0 0 50 32" version="1.1" xmlns="http://www.w3.org/2000/svg" xmlns:xlink="http://www.w3.org/1999/xlink">
    <!-- Generator: Sketch 52.6 (67491) - http://www.bohemiancoding.com/sketch -->
    <title>01</title>
    <desc>Created with Sketch.</desc>
    <g id="Page-1" stroke="none" stroke-width="1" fill="none" fill-rule="evenodd">
        <path d="M11.6279297,31.8691406 C8.18259996,31.8691406 5.38331155,30.3925929 3.22998047,27.4394531 C1.07664939,24.4863134 0,20.6513908 0,15.9345703 C0,11.1630621 1.08006732,7.31446775 3.24023438,4.38867188 C5.40040143,1.462876 8.24412299,0 11.7714844,0 C15.2715019,0 18.1049696,1.45945806 20.2719727,4.37841797 C22.4389757,7.29737788 23.5224609,11.1220467 23.5224609,15.8525391 C23.5224609,20.706079 22.4389757,24.5888526 20.2719727,27.5009766 C18.1049696,30.4131005 15.2236508,31.8691406 11.6279297,31.8691406 Z M11.6894531,28.0751953 C15.2851742,28.0751953 17.0830078,24.0283608 17.0830078,15.9345703 C17.0830078,7.84077984 15.3125177,3.79394531 11.7714844,3.79394531 C8.23045104,3.79394531 6.45996094,7.83394397 6.45996094,15.9140625 C6.45996094,24.0215249 8.20310757,28.0751953 11.6894531,28.0751953 Z M31.5805078,31.1103516 L31.5805078,27.5625 L37.6508203,27.5625 L37.6508203,5.16796875 L31.5805078,6.68554688 L31.5805078,3.03515625 L43.7416406,0 L43.7416406,27.5625 L49.8119531,27.5625 L49.8119531,31.1103516 L31.5805078,31.1103516 Z" id="01" fill="#292525"></path>
    </g>
</svg>