<?xml version="1.0" encoding="UTF-8"?>
<svg width="1196px" height="1024px" viewBox="0 0 1196 1024" version="1.1" xmlns="http://www.w3.org/2000/svg" xmlns:xlink="http://www.w3.org/1999/xlink">
    <!-- Generator: Sketch 50.2 (55047) - http://www.bohemiancoding.com/sketch -->
    <title>Untitled 2</title>
    <desc>Created with Sketch.</desc>
    <defs></defs>
    <g id="Page-1" stroke="none" stroke-width="1" fill="none" fill-rule="evenodd">
        <g id="register" fill-rule="nonzero">
            <path d="M585.142857,0 C343.771429,0 146.285714,197.485714 146.285714,441.295238 C146.285714,560.761905 192.609524,668.038095 268.190476,748.495238 C246.247619,802.133333 229.180952,858.209524 216.990476,906.971429 C202.361905,965.485715 246.247619,1024 307.2,1024 L863.085714,1024 C924.038095,1024 967.923809,965.485714 953.295238,906.971429 C941.104762,858.209524 924.038095,802.133334 902.095238,748.495238 C977.67619,668.038095 1024,560.761905 1024,441.295238 C1024,197.485714 826.514286,0 585.142857,0 Z" id="Shape" fill="#FFA3AB"></path>
            <path d="M585.142857,650.971429 C665.6,650.971429 733.866667,599.771429 760.685714,526.628571 C770.438095,497.371428 748.495238,465.67619 716.8,465.67619 L453.485714,465.67619 C421.790476,465.67619 399.847619,497.371428 409.6,526.628571 C436.419048,599.771428 504.685714,650.971428 585.142857,650.971429 Z" id="Shape" fill="#FFFFFF"></path>
            <path d="M402.285714,97.52381 C180.419048,97.52381 0,275.504762 0,497.371429 C0,604.647619 43.885714,702.171429 112.152381,775.314286 C92.647619,824.076191 78.019048,875.276191 65.828571,919.161905 C53.638095,972.8 92.647619,1024 148.72381,1024 L655.847619,1024 C711.923809,1024 750.933333,972.8 738.742857,919.161905 C726.552381,875.276191 711.923809,824.076191 692.419048,775.314286 C763.12381,702.171429 804.571429,604.647619 804.571429,497.371429 C804.571429,275.504762 624.152381,97.52381 402.285714,97.52381 Z" id="Shape" fill="#1298CF"></path>
            <path d="M402.285714,687.542857 C475.428571,687.542857 538.819047,641.219047 563.2,575.390476 C572.952381,548.571428 551.009524,519.314286 521.752381,519.314286 L282.819048,519.314286 C253.561905,519.314286 234.057143,548.571429 241.371429,575.390476 C265.752381,638.780952 329.142858,687.542857 402.285714,687.542857 Z" id="Shape" fill="#FFFFFF"></path>
            <g id="add" transform="translate(763.000000, 18.000000)">
                <path d="M330.51915,40.016053 C339.248487,46.4613389 347.561703,53.4799465 355.514277,61.432521 C436.972682,142.659747 436.972682,274.681732 355.514277,355.908958 C274.250062,437.358116 142.274315,437.358116 61.0101,355.908958 C53.2424691,348.178314 46.0666577,339.809617 39.6306207,331.117268 C-6.79022107,267.27474 -12.449495,183.023688 22.7545161,114.067467 C32.408574,95.1292436 45.104951,77.3469166 61.0101,61.432521 C134.340233,-12.0640627 249.10698,-19.2398741 330.51915,40.016053 Z" id="Shape" fill="#A0D468"></path>
                <path d="M303.083333,189.583333 L227.416667,189.583333 L227.416667,113.916667 C227.416667,103.451539 218.965128,95 208.5,95 C198.044108,95 189.583333,103.451539 189.583333,113.916667 L189.583333,189.583333 L113.916667,189.583333 C103.460775,189.583333 95,198.034872 95,208.5 C95,218.955892 103.460775,227.416667 113.916667,227.416667 L189.583333,227.416667 L189.583333,303.083333 C189.583333,313.539225 198.044108,322 208.5,322 C218.965128,322 227.416667,313.539225 227.416667,303.083333 L227.416667,227.416667 L303.083333,227.416667 C313.548461,227.416667 322,218.955892 322,208.5 C322,198.034872 313.548461,189.583333 303.083333,189.583333 Z" id="Shape" fill="#FFFFFF"></path>
            </g>
        </g>
    </g>
</svg>