<?xml version="1.0" encoding="UTF-8"?>
<svg width="200px" height="200px" viewBox="0 0 200 200" version="1.1" xmlns="http://www.w3.org/2000/svg" xmlns:xlink="http://www.w3.org/1999/xlink">
    <!-- Generator: Sketch 52.6 (67491) - http://www.bohemiancoding.com/sketch -->
    <title>Group</title>
    <desc>Created with Sketch.</desc>
    <g id="Page-1" stroke="none" stroke-width="1" fill="none" fill-rule="evenodd">
        <g id="Group">
            <circle id="Oval" fill="#FFFFFF" cx="98.5" cy="98.5" r="94.5"></circle>
            <g id="rss" fill="#F78422" fill-rule="nonzero">
                <path d="M100,0.0883400391 C44.8180957,0.0883400391 0.0841464844,44.8202119 0.0841464844,100 C0.0841464844,155.179788 44.8178959,199.91166 100,199.91166 C155.182104,199.91166 199.915854,155.179788 199.915854,100 C199.915854,44.8202119 155.181904,0.0883400391 100,0.0883400391 Z M60.4175744,149.628152 C54.7679676,149.628152 50.1882803,145.048057 50.1882803,139.398688 C50.1882803,133.748918 54.7681674,129.169223 60.4175744,129.169223 C66.0669814,129.169223 70.6474682,133.748918 70.6474682,139.398688 C70.6474682,145.048057 66.0671812,149.628152 60.4175744,149.628152 Z M101.328155,149.830815 C101.328155,121.538797 78.3105945,98.5228016 50.0355773,98.5228016 L50.0355773,76.9200482 C90.3221551,76.9200482 122.946006,109.578306 122.946006,149.831015 L101.328155,149.831015 L101.328155,149.830815 Z M140.606374,149.830815 C140.606374,99.8886754 99.9944037,59.2470305 50.0355773,59.2470305 L50.0355773,37.6426783 C112.005165,37.6426783 162.227024,87.8926088 162.227024,149.830815 L140.606374,149.830815 Z" id="Shape"></path>
            </g>
        </g>
    </g>
</svg>