<?xml version="1.0" standalone="no"?><!DOCTYPE svg PUBLIC "-//W3C//DTD SVG 1.1//EN" "http://www.w3.org/Graphics/SVG/1.1/DTD/svg11.dtd"><svg t="1554703595283" class="icon" style="" viewBox="0 0 1024 1024" version="1.1" xmlns="http://www.w3.org/2000/svg" p-id="2887" xmlns:xlink="http://www.w3.org/1999/xlink" width="200" height="200"><defs><style type="text/css"></style></defs><path d="M320.583806 507.875243a190.358751 190.358751 0 1 0 190.358751-190.358751 190.358751 190.358751 0 0 0-190.358751 190.358751z m190.358751-63.452917a63.452917 63.452917 0 1 1-63.452917 63.452917 63.452917 63.452917 0 0 1 63.452917-63.452917z" fill="" p-id="2888"></path><path d="M927.828221 232.489584L542.669016 8.500787a63.452917 63.452917 0 0 0-63.452917 0L94.056893 232.489584a63.452917 63.452917 0 0 0-31.726458 55.204038v447.343064a63.452917 63.452917 0 0 0 31.726458 55.204037L479.216099 1015.498578a63.452917 63.452917 0 0 0 63.452917 0l385.159205-223.354267a63.452917 63.452917 0 0 0 31.726458-55.204038V287.059092a63.452917 63.452917 0 0 0-31.726458-54.569508zM832.648846 698.233994l-321.706289 186.551575L189.236269 698.233994V323.861784l321.706288-186.551575 321.706289 186.551575z" fill="" p-id="2889"></path></svg>