<?xml version="1.0" encoding="UTF-8"?>
<svg width="512px" height="512px" viewBox="0 0 512 512" version="1.1" xmlns="http://www.w3.org/2000/svg" xmlns:xlink="http://www.w3.org/1999/xlink">
    <!-- Generator: Sketch 50.2 (55047) - http://www.bohemiancoding.com/sketch -->
    <title>Untitled</title>
    <desc>Created with Sketch.</desc>
    <defs></defs>
    <g id="Page-1" stroke="none" stroke-width="1" fill="none" fill-rule="evenodd">
        <g id="sync" fill-rule="nonzero">
            <path d="M511.914062,256 C511.914062,114.613281 397.320312,0 255.957031,0 C114.597656,0 0,114.613281 0,256 C0,397.386719 114.597656,512 255.957031,512 C397.320312,512 511.914062,397.386719 511.914062,256 Z" id="Shape" fill="#1197CE"></path>
            <path d="M410.71875,52.097656 C443.394531,95.085938 462.804688,148.714844 462.804688,206.882812 C462.804688,348.265625 348.210938,462.882812 206.847656,462.882812 C148.6875,462.882812 95.070312,443.46875 52.089844,410.785156 C98.839844,472.285156 172.753906,512 255.957031,512 C397.320312,512 511.914062,397.386719 511.914062,256 C511.914062,172.785156 472.207031,98.855469 410.71875,52.097656 Z" id="Shape" fill="#2970AA"></path>
            <path d="M137.597656,374.183594 L154.554688,357.222656 C203,400.011719 257.199219,411.402344 316.550781,384.75 C353.828125,368.007812 378.140625,338.652344 392.210938,299.328125 C393.089844,296.875 391.261719,294.289062 388.65625,294.296875 C375.617188,294.328125 363.316406,294.222656 351.054688,294.835938 C348.613281,294.957031 345.648438,298.546875 344.136719,301.21875 C318.617188,346.421875 267.210938,366.207031 220.585938,347.566406 C208.441406,342.710938 197.585938,334.632812 184.652344,327.179688 L201.921875,309.90625 C204.042969,307.785156 202.539062,304.15625 199.539062,304.15625 C178.460938,304.152344 157.640625,304.144531 136.265625,304.140625 C133.660156,304.140625 131.539062,306.25 131.542969,308.855469 C131.558594,326.496094 131.527344,357.570312 131.847656,371.886719 C131.914062,374.847656 135.5,376.277344 137.597656,374.183594 Z" id="Shape" fill="#E3FAFF"></path>
            <path d="M388.65625,294.296875 C381.015625,294.316406 373.632812,294.289062 366.355469,294.386719 C368.511719,294.851562 369.886719,297.140625 369.101562,299.328125 C355.035156,338.652344 330.722656,368.011719 293.445312,384.75 C276.0625,392.554688 259.128906,397.074219 242.648438,398.519531 C266.292969,400.652344 290.941406,396.25 316.550781,384.75 C353.828125,368.007812 378.140625,338.652344 392.210938,299.328125 C393.085938,296.878906 391.261719,294.289062 388.65625,294.296875 Z" id="Shape" fill="#CCF4FF"></path>
            <path d="M325.351562,186.390625 L309.976562,201.769531 C308.015625,203.730469 309.398438,207.085938 312.175781,207.089844 C332.765625,207.128906 353.4375,207.164062 373.589844,207.199219 C376.199219,207.203125 378.304688,205.09375 378.304688,202.484375 C378.277344,183.039062 378.25,162.375 378.222656,141.472656 C378.21875,138.695312 374.863281,137.308594 372.898438,139.273438 L357.289062,154.886719 C311.691406,114.015625 260.597656,102.035156 203.503906,123.273438 C164.492188,137.785156 132.414062,172.695312 119.664062,212.339844 C118.890625,214.746094 120.710938,217.203125 123.242188,217.210938 C136.003906,217.246094 148.574219,217.390625 161.121094,216.90625 C163.3125,216.820312 165.984375,213.378906 167.386719,210.894531 C191.160156,168.789062 236.964844,148.59375 281.792969,160.832031 C298.109375,165.289062 312.410156,173.421875 325.351562,186.390625 Z" id="Shape" fill="#E3FAFF"></path>
            <path d="M378.222656,141.472656 C378.21875,138.695312 374.863281,137.308594 372.898438,139.273438 L357.289062,154.886719 C352.117188,150.25 346.875,146.011719 341.5625,142.128906 C341.5625,142.125 341.5625,142.125 341.5625,142.121094 C341.523438,142.09375 341.488281,142.070312 341.449219,142.042969 C341.378906,141.988281 341.304688,141.933594 341.234375,141.882812 L341.234375,141.886719 C309.683594,118.917969 275.617188,109.257812 238.878906,114.238281 C259.21875,117.113281 289.054688,132.84375 313.804688,149.847656 C331.027344,161.683594 341.285156,181.273438 341.316406,202.175781 L341.316406,202.480469 C341.316406,204.867188 339.550781,206.816406 337.253906,207.132812 C349.464844,207.15625 361.621094,207.175781 373.589844,207.199219 C376.199219,207.203125 378.304688,205.09375 378.300781,202.488281 C378.277344,183.042969 378.25,162.378906 378.222656,141.472656 Z" id="Shape" fill="#CCF4FF"></path>
        </g>
    </g>
</svg>