<?xml version="1.0" encoding="UTF-8"?>
<svg width="512px" height="342px" viewBox="0 0 512 342" version="1.1" xmlns="http://www.w3.org/2000/svg" xmlns:xlink="http://www.w3.org/1999/xlink">
    <!-- Generator: Sketch 52.6 (67491) - http://www.bohemiancoding.com/sketch -->
    <title>visible</title>
    <desc>Created with Sketch.</desc>
    <g id="Page-1" stroke="none" stroke-width="1" fill="none" fill-rule="evenodd">
        <g id="visible" fill="#2A70AA">
            <path d="M256,0.333 C85.333,0.333 0,171 0,171 C0,171 85.333,341.667 256,341.667 C426.667,341.667 512,171 512,171 C512,171 426.667,0.333 256,0.333 Z M256,299 C185.307,299 128,241.693 128,171 C128,100.307 185.307,43 256,43 C326.692,43 384,100.307 384,171 C384,241.693 326.692,299 256,299 Z" id="Shape" fill-rule="nonzero"></path>
            <path d="M333.012,134.213 C327.864,139.367 320.75,142.556 312.889,142.556 C297.179,142.556 284.445,129.821 284.445,114.112 C284.445,106.251 287.634,99.136 292.786,93.989 C281.647,88.658 269.174,85.668 256,85.668 C208.872,85.668 170.667,123.873 170.667,171.001 C170.667,179.75 171.99,188.191 174.436,196.139 C181.124,181.32 196.019,171 213.333,171 C236.898,171 256,190.102 256,213.667 C256,230.981 245.68,245.876 230.862,252.565 C238.809,255.011 247.25,256.334 256,256.334 C303.128,256.334 341.333,218.129 341.333,171.001 C341.333,157.826 338.342,145.353 333.012,134.213 Z" id="Path"></path>
        </g>
    </g>
</svg>