<svg height="512pt" viewBox="0 0 512 512" width="512pt" xmlns="http://www.w3.org/2000/svg"><path d="m512 256c0 141.386719-114.613281 256-256 256s-256-114.613281-256-256 114.613281-256 256-256 256 114.613281 256 256zm0 0" fill="#2ad827"/><path d="m498.4375 338.425781-95.910156-95.910156c-9.507813-10.679687-21.9375-19.421875-36.292969-25.40625l-67.488281-67.582031c-22.300782-23.289063-56.035156-38.148438-93.820313-38.148438-67.152343 0-121.59375 46.898438-121.59375 104.75 0 25.0625 10.230469 48.0625 27.273438 66.089844l15.71875 15.757812-6.753907 25.046876c-.6875 2.542968.167969 4.875 1.777344 6.40625l178.308594 178.847656c93.09375-15.996094 169.007812-82.257813 198.78125-169.851563zm0 0" fill="#00ae00"/><path d="m239.183594 221.269531c21.988281-18.4375 51.058594-28.589843 81.851562-28.589843.8125 0 1.621094.007812 2.429688.023437-12.347656-46.574219-60.730469-81.324219-118.539063-81.324219-67.15625 0-121.59375 46.898438-121.59375 104.75 0 32.207032 16.878907 61.011719 43.429688 80.226563l-7.191407 26.667969c-1.535156 5.699218 4.660157 10.359374 9.707032 7.300781l28.863281-17.488281c14.402344 5.175781 30.207031 8.039062 46.789063 8.039062 1.089843 0 2.175781-.015625 3.261718-.039062-2.855468-8.792969-4.332031-17.988282-4.332031-27.398438-.003906-27.441406 12.542969-53.070312 35.324219-72.167969zm4.375-60.34375c8.523437 0 15.433594 6.910157 15.433594 15.433594 0 8.527344-6.910157 15.4375-15.433594 15.4375-8.527344 0-15.4375-6.910156-15.4375-15.4375 0-8.523437 6.910156-15.433594 15.4375-15.433594zm-80.320313 30.871094c-8.523437 0-15.433593-6.910156-15.433593-15.4375 0-8.523437 6.910156-15.433594 15.433593-15.433594 8.527344 0 15.4375 6.910157 15.4375 15.433594 0 8.527344-6.910156 15.4375-15.4375 15.4375zm0 0" fill="#fff"/><path d="m422.664062 293.4375c0-47.058594-45.5-85.207031-101.628906-85.207031-56.125 0-101.625 38.148437-101.625 85.207031 0 47.054688 45.5 85.203125 101.625 85.203125 13.859375 0 27.066406-2.328125 39.105469-6.539063l20.925781 13.457032c4.941406 3.175781 11.242188-1.257813 9.914063-6.980469l-4.613281-19.878906c22.191406-15.632813 36.296874-39.0625 36.296874-65.261719zm-134.921874-10.117188c-7.566407 0-13.703126-6.132812-13.703126-13.703124 0-7.566407 6.136719-13.699219 13.703126-13.699219 7.566406 0 13.699218 6.132812 13.699218 13.699219 0 7.570312-6.132812 13.703124-13.699218 13.703124zm66.589843 0c-7.566406 0-13.703125-6.132812-13.703125-13.703124 0-7.566407 6.136719-13.699219 13.703125-13.699219 7.566407 0 13.703125 6.132812 13.703125 13.699219 0 7.570312-6.136718 13.703124-13.703125 13.703124zm0 0" fill="#ffec97"/><path d="m422.667969 293.441406c0-46.382812-44.191407-84.101562-99.199219-85.179687v170.347656c12.96875-.25 25.339844-2.550781 36.667969-6.507813l20.929687 13.457032c4.941406 3.179687 11.242188-1.257813 9.910156-6.980469l-4.609374-19.878906c22.191406-15.628907 36.300781-39.058594 36.300781-65.257813zm-68.339844-10.121094c-7.558594 0-13.699219-6.128906-13.699219-13.699218 0-7.570313 6.140625-13.699219 13.699219-13.699219 7.570313 0 13.710937 6.128906 13.710937 13.699219 0 7.570312-6.140624 13.699218-13.710937 13.699218zm0 0" fill="#ffe047"/><path d="m204.929688 111.378906c-2.292969 0-4.5625.050782-6.820313.171875v209.148438c2.257813.121093 4.527344.171875 6.820313.171875 1.089843 0 2.179687-.011719 3.257812-.03125-2.859375-8.800782-4.328125-17.988282-4.328125-27.398438 0-27.441406 12.539063-53.070312 35.320313-72.171875 21.988281-18.441406 51.058593-28.589843 81.859374-28.589843.808594 0 1.617188.011718 2.429688.019531-12.351562-46.570313-60.742188-81.320313-118.539062-81.320313zm38.628906 80.421875c-8.53125 0-15.441406-6.910156-15.441406-15.441406 0-8.519531 6.910156-15.429687 15.441406-15.429687 8.519531 0 15.429687 6.910156 15.429687 15.429687 0 8.53125-6.910156 15.441406-15.429687 15.441406zm0 0" fill="#fff5cb"/></svg>