<?xml version="1.0" encoding="UTF-8"?>
<svg width="200px" height="200px" viewBox="0 0 200 200" version="1.1" xmlns="http://www.w3.org/2000/svg" xmlns:xlink="http://www.w3.org/1999/xlink">
    <!-- Generator: Sketch 52.6 (67491) - http://www.bohemiancoding.com/sketch -->
    <title>zhihu</title>
    <desc>Created with Sketch.</desc>
    <g id="Page-1" stroke="none" stroke-width="1" fill="none" fill-rule="evenodd">
        <g id="zhihu">
            <circle id="Oval" fill="#FFFFFF" cx="100.5" cy="104.5" r="69.5"></circle>
            <path d="M100,200 C44.7727273,200 0,155.227273 0,100 C0,44.7727273 44.7727273,0 100,0 C155.227273,0 200,44.7727273 200,100 C200,155.227273 155.227273,200 100,200 Z M74.6363637,52.25 C74.6363637,52.25 67.5636363,52.6590908 65.0681818,57.0318182 C62.5681818,61.4 54.459091,83.8636363 54.4590908,83.8636363 C54.4590906,83.8636363 57.1636363,85.1090908 61.7409092,81.7818182 C66.3181818,78.4545455 67.7727273,72.6318182 67.7727273,72.6318182 L76.0909092,72.2181818 L76.3,95.9272727 C76.3,95.9272727 61.9454545,95.7181818 59.0318182,95.9272727 C56.1227273,96.1318182 54.4590908,103.827273 54.4590908,103.827273 L76.3,103.827273 C76.3,103.827273 74.4272727,116.931818 68.8090908,126.5 C63.1954545,136.068182 52.5863635,143.554546 52.5863637,143.554546 C52.5863639,143.554546 60.2863637,146.672727 67.7681818,142.304546 C75.259091,137.940909 80.7818182,118.731818 80.7818182,118.731818 L98.3454545,140.227273 C98.3454545,140.227273 99.9454545,129.995454 98.0590908,127.104546 C96.1727271,124.218182 85.9090908,112.595455 85.9090908,112.595454 L81.4272727,116.55 L84.6181818,103.831818 L103.75,103.831818 C103.75,103.831818 103.75,96.340909 100.009091,95.9227273 C96.2636363,95.5136365 84.6181816,95.9227273 84.6181818,95.9227273 L84.6181818,72.6363637 L101.881818,72.6363637 C101.881818,72.6363637 101.672727,64.9409092 98.3454545,64.9409092 L70.2681818,64.9409092 L74.6318182,52.2545455 L74.6363637,52.25 Z M107.836364,64.2 L107.836364,134.231818 L114.868182,134.231818 L117.427273,143.022727 L129.8,134.231818 L147.195454,134.231818 L147.195454,64.2 L107.836364,64.2 Z" id="Shape" fill="#00B3EE" fill-rule="nonzero"></path>
            <polygon id="Path" fill="#00B3EE" points="116.168182 72 139.195454 72 139.195454 126.272727 131.013636 126.272727 120.590909 134.136364 118.318182 126.272727 116.168182 126.272727"></polygon>
        </g>
    </g>
</svg>