<?xml version="1.0" encoding="UTF-8"?>
<svg width="136px" height="163px" viewBox="0 0 136 163" version="1.1" xmlns="http://www.w3.org/2000/svg" xmlns:xlink="http://www.w3.org/1999/xlink">
    <!-- Generator: Sketch 52.6 (67491) - http://www.bohemiancoding.com/sketch -->
    <title>auth</title>
    <desc>Created with Sketch.</desc>
    <g id="Page-1" stroke="none" stroke-width="1" fill="none" fill-rule="evenodd">
        <g id="auth" transform="translate(0.421875, 0.140625)">
            <path d="M0.152539063,23.6107422 L0.152539063,94.2382812 C0.152539063,94.2382812 -0.3625,115.438281 25.4140625,140.05 C24.971875,139.629492 45.0761719,160.599609 67.6148438,162.044727 C67.6148438,162.044727 87.8714844,162.613086 114.060156,135.806836 C114.060156,135.806836 132.837109,116.324414 135.078125,94.3529297 C135.078125,91.7070312 135.041992,23.6107422 135.041992,23.6107422 C135.041992,23.6107422 115.035742,25.5105469 90.8675781,13.8783203 C90.7496094,13.8232422 78.0652344,8.38964844 67.5972656,0.04453125 C67.5972656,0.04453125 52.6371094,11.5234375 36.5238281,17.2363281 C36.5722656,17.2363281 21.2033203,23.9791016 0.152539063,23.6107422 Z" id="Path" fill="#2A6EA8"></path>
            <polygon id="Path" fill="#FFFFFF" points="40.25 75.9177734 31.4416016 86.2988281 60.0726562 110.73418 103.7875 60.2904297 93.4964844 51.3375 58.6263672 91.5798828"></polygon>
        </g>
    </g>
</svg>