<?xml version="1.0" standalone="no"?><!DOCTYPE svg PUBLIC "-//W3C//DTD SVG 1.1//EN" "http://www.w3.org/Graphics/SVG/1.1/DTD/svg11.dtd"><svg t="1548296498705" class="icon" style="" viewBox="0 0 1024 1024" version="1.1" xmlns="http://www.w3.org/2000/svg" p-id="1238" xmlns:xlink="http://www.w3.org/1999/xlink" width="200" height="200"><defs><style type="text/css"></style></defs><path d="M728.154 555.135a30.113 30.113 0 0 0-51.795 9.335 224.345 224.345 0 0 1-38.545 68.056 312.276 312.276 0 0 0 1.806-33.727 381.235 381.235 0 0 0-2.71-41.857 308.963 308.963 0 0 0-23.187-81.005 34.33 34.33 0 0 0-3.915-8.432 301.134 301.134 0 0 0-110.516-127.078 30.113 30.113 0 0 0-30.113 0 30.113 30.113 0 0 0-15.96 26.198 207.481 207.481 0 0 1-21.983 90.34 201.458 201.458 0 0 1-76.79 82.812 271.02 271.02 0 0 0-85.521 79.8 264.094 264.094 0 0 0-42.761 144.244 259.577 259.577 0 0 0 30.113 124.669 266.804 266.804 0 0 0 94.255 99.675 30.113 30.113 0 0 0 33.727 0 30.113 30.113 0 0 0 11.443-31.619 267.106 267.106 0 0 1-6.926-60.227 251.145 251.145 0 0 1 17.466-92.749 236.089 236.089 0 0 1 18.068-38.545l1.807 4.216a470.973 470.973 0 0 0 199.35 221.032 207.18 207.18 0 0 0 19.875 10.54l3.312 1.807a30.113 30.113 0 0 0 32.222-3.915 316.793 316.793 0 0 0 107.504-167.13 341.787 341.787 0 0 0 9.938-78.595 315.287 315.287 0 0 0-70.164-197.845z" fill="#FFC824" p-id="1239"></path><path d="M281.572 371.142a30.113 30.113 0 0 1-25.295-13.55 30.113 30.113 0 0 1 8.733-41.557l12.648-8.13a30.113 30.113 0 0 1 30.113 51.794l-8.733 6.625a30.113 30.113 0 0 1-17.466 4.818z" fill="#6B400D" p-id="1240"></path><path d="M707.074 1024a32.221 32.221 0 0 1-10.54-1.807 412.252 412.252 0 0 1-70.465-32.823 470.973 470.973 0 0 1-199.35-221.032l-1.807-4.216a236.089 236.089 0 0 0-18.068 38.545 256.265 256.265 0 0 0-3.915 175.26 30.113 30.113 0 0 1-6.926 30.113 30.113 30.113 0 0 1-30.113 8.13 391.474 391.474 0 0 1-231.572-190.015 391.474 391.474 0 0 1 17.165-396.292c5.721-9.034 12.045-17.766 18.369-25.897a30.113 30.113 0 0 1 47.579 36.738c-5.42 7.227-10.54 14.455-15.358 21.983a331.247 331.247 0 0 0-14.755 335.463 331.247 331.247 0 0 0 144.544 140.328 337.27 337.27 0 0 1-2.71-43.062 312.276 312.276 0 0 1 21.38-114.13 308.963 308.963 0 0 1 60.227-100.88 30.113 30.113 0 0 1 30.113-9.033 30.113 30.113 0 0 1 21.983 21.38 439.354 439.354 0 0 0 18.37 51.494A412.854 412.854 0 0 0 655.58 937.274a309.565 309.565 0 0 0 46.977 22.886A412.252 412.252 0 0 0 862.76 726.78a421.587 421.587 0 0 0 12.046-100.277 402.013 402.013 0 0 0-60.227-214.106 331.247 331.247 0 0 1-20.176 34.931 376.417 376.417 0 0 1-125.874 122.26c-9.937 5.722-19.574 10.841-30.113 15.66a30.113 30.113 0 0 1-33.727-5.722 30.113 30.113 0 0 1-4.517-33.727 389.366 389.366 0 0 0 30.113-156.89 481.814 481.814 0 0 0-3.312-54.807 402.013 402.013 0 0 0-30.114-105.698v-3.312l-1.806-3.313A389.366 389.366 0 0 0 493.269 86.571a396.894 396.894 0 0 1-37.641 114.732 30.113 30.113 0 0 1-53.602-27.102 338.775 338.775 0 0 0 35.233-143.942 30.113 30.113 0 0 1 46.675-25.295 451.7 451.7 0 0 1 164.42 189.714 50.892 50.892 0 0 1 5.118 10.84 458.024 458.024 0 0 1 34.33 120.454 556.194 556.194 0 0 1 2.71 62.937 466.757 466.757 0 0 1-10.54 98.17 319.503 319.503 0 0 0 62.937-72.272 307.156 307.156 0 0 0 37.943-73.477 30.113 30.113 0 0 1 50.892-9.937A470.07 470.07 0 0 1 935.634 625.9a481.814 481.814 0 0 1-13.851 114.732 471.876 471.876 0 0 1-198.146 277.947 30.113 30.113 0 0 1-16.563 5.42zM597.763 227.2z m-2.108-3.914z" fill="#333333" p-id="1241"></path></svg>