<?xml version="1.0" encoding="UTF-8"?>
<svg width="226px" height="324px" viewBox="0 0 226 324" version="1.1" xmlns="http://www.w3.org/2000/svg" xmlns:xlink="http://www.w3.org/1999/xlink">
    <!-- Generator: Sketch 50.2 (55047) - http://www.bohemiancoding.com/sketch -->
    <title>1 8</title>
    <desc>Created with Sketch.</desc>
    <defs></defs>
    <g id="Page-1" stroke="none" stroke-width="1" fill="none" fill-rule="evenodd">
        <g id="1-8" fill-rule="nonzero">
            <path d="M194.44,82.01 L194.44,106.62 L164.44,106.62 L164.44,82.01 C164.44,53.65 141.36,30.58 113,30.58 C112.87,30.58 112.75,30.58 112.62,30.59 C84.43,30.79 61.56,53.78 61.56,82.01 L61.56,148.14 L31.56,148.14 L31.56,82.01 C31.56,37.24 67.89,0.79 112.62,0.59 C112.75,0.58 112.87,0.58 113,0.58 C157.9,0.58 194.44,37.11 194.44,82.01 Z" id="Shape" fill="#C8C6CD"></path>
            <rect id="Rectangle-path" fill="#FFB74C" x="0.89" y="133.14" width="224.22" height="189.98"></rect>
            <rect id="Rectangle-path" fill="#FF9A00" x="112.62" y="133.14" width="112.49" height="189.98"></rect>
            <path d="M194.44,82.01 L194.44,106.62 L164.44,106.62 L164.44,82.01 C164.44,53.65 141.36,30.58 113,30.58 C112.87,30.58 112.75,30.58 112.62,30.59 L112.62,0.59 C112.75,0.58 112.87,0.58 113,0.58 C157.9,0.58 194.44,37.11 194.44,82.01 Z" id="Shape" fill="#AEADB3"></path>
            <path d="M135.206839,217.681843 C135.206839,223.318135 132.742853,228.424254 128.748719,232.150898 L128.731843,257.681496 L96.5031242,257.681496 L96.4581199,232.150898 C92.4639865,228.424254 90,223.318135 90,217.681843 C90,206.259989 100.120346,197 112.60342,197 C125.086493,197 135.206839,206.259989 135.206839,217.681843 Z" id="Shape" fill="#9A4C00"></path>
            <path d="M135.60342,217.681843 C135.60342,223.318135 133.139433,228.424254 129.1453,232.150898 L129.128423,257.681496 L113,257.681496 L113,197 C125.483073,197 135.60342,206.259989 135.60342,217.681843 Z" id="Shape" fill="#703700"></path>
        </g>
    </g>
</svg>