<?xml version="1.0" encoding="UTF-8"?>
<svg width="38px" height="38px" viewBox="0 0 38 38" version="1.1" xmlns="http://www.w3.org/2000/svg" xmlns:xlink="http://www.w3.org/1999/xlink">
    <!-- Generator: Sketch 52.6 (67491) - http://www.bohemiancoding.com/sketch -->
    <title>Group</title>
    <desc>Created with Sketch.</desc>
    <g id="Page-1" stroke="none" stroke-width="1" fill="none" fill-rule="evenodd">
        <g id="logo">
            <g id="Group">
                <circle id="background-pattern" fill="#2A6EA8" cx="19" cy="19" r="19"></circle>
                <g id="foreground-pattern" transform="translate(10.000000, 9.000000)" fill="#FFFFFF">
                    <g id="Group-Copy-4" transform="translate(0.203125, 0.656250)">
                        <path d="M15.9505208,8.44238387 L19.140625,8.44238387 L19.140625,11.9810549 C19.140625,13.6938862 19.1326154,14.9864694 18.8816071,15.8588431 C18.6305987,16.7312168 18.3208484,17.4572974 17.9523468,18.0371068 C17.5838452,18.6169161 17.132571,19.1355452 16.5985107,19.5930094 C14.8254306,21.1143441 12.5076437,21.875 9.64508057,21.875 C6.7291114,21.875 4.38996243,21.1196634 2.62756348,19.6089674 C2.09350319,19.1408644 1.64222902,18.6169161 1.27372742,18.0371068 C0.905225819,17.4572974 0.600816021,16.7471746 0.360488892,15.906717 C0.120161762,15.0662594 0,13.7470799 0,11.949139 L0,1.82291667 L3.28125,1.82291667 L3.28125,11.9810549 C3.28125,14.0768796 3.46069096,15.5343601 3.94134521,16.3535403 C4.42199947,17.1727205 5.15365109,17.8296506 6.13632202,18.3243504 C7.11899295,18.8190501 8.27788639,19.0663962 9.61303711,19.0663962 C11.5142917,19.0663962 13.0630433,18.5717039 14.2593384,17.5823045 C14.8895295,17.0503693 15.343474,16.4226952 15.6211853,15.6992633 C15.8988967,14.9758314 15.9505208,13.736441 15.9505208,11.9810549 L15.9505208,8.44238387 Z" id="U-Copy-4"></path>
                        <path d="M1.640625,0 L1.68619792,1.11022302e-15 C2.56712086,9.48400106e-16 3.28125,0.714129143 3.28125,1.59505208 C3.28125,1.59505208 3.28125,1.59505208 3.28125,1.59505208 C3.28125,2.03559028 3.28125,2.47612847 3.28125,2.91666667 C3.28125,3.82275883 2.54671717,4.55729167 1.640625,4.55729167 C0.734532832,4.55729167 3.25294766e-14,3.82275883 3.24185123e-14,2.91666667 L3.19744231e-14,1.640625 C3.18634588e-14,0.734532832 0.734532832,1.66446431e-16 1.640625,0 Z" id="Rectangle"></path>
                        <rect id="Rectangle" x="16.40625" y="6.8359375" width="2.734375" height="7.29166667" rx="1.3671875"></rect>
                    </g>
                    <rect id="Rectangle-2" x="6.21875" y="0.65625" width="13.125" height="3.28125" rx="1.640625"></rect>
                    <rect id="Rectangle-2" x="6.21875" y="7.21875" width="13.125" height="3.28125" rx="1.640625"></rect>
                </g>
            </g>
        </g>
    </g>
</svg>