<?xml version="1.0" encoding="UTF-8"?>
<svg width="635px" height="474px" viewBox="0 0 635 474" version="1.1" xmlns="http://www.w3.org/2000/svg" xmlns:xlink="http://www.w3.org/1999/xlink">
    <!-- Generator: Sketch 52.6 (67491) - http://www.bohemiancoding.com/sketch -->
    <title>Group 2</title>
    <desc>Created with Sketch.</desc>
    <defs>
        <polygon id="path-1" points="0 53.9399198 0 0.37555536 88.4155786 0.37555536 88.4155786 53.9399198"></polygon>
        <path d="M4.72994292,0.0404735284 C3.05639411,1.45574491 1.48474805,3.16764964 0.0908800461,5.33092551 C10.7574605,11.5368177 21.4999314,12.3815645 31.861984,14.3606932 L31.861984,0.0404735284 L4.72994292,0.0404735284 Z" id="path-3"></path>
        <path d="M0.609207539,0.480808176 C0.913687558,0.325809521 1.2184245,0.173850071 1.52305678,0.0241923922 L56.4782133,0.0241923922 L56.4782133,9.52746229 C50.7199352,14.1832648 43.825198,17.7459876 39.8608598,25.3968524 C27.5301179,18.0003255 14.1358479,18.8559076 0.609207542,14.7086196 L0.609207542,0.480808176 Z" id="path-5"></path>
        <linearGradient x1="11.7144097%" y1="69.5041856%" x2="62.3238651%" y2="174.900377%" id="linearGradient-7">
            <stop stop-color="#8EBFFF" offset="0%"></stop>
            <stop stop-color="#FFFFFF" offset="100%"></stop>
        </linearGradient>
        <linearGradient x1="116.552524%" y1="58.6925438%" x2="15.9104735%" y2="80.7245919%" id="linearGradient-8">
            <stop stop-color="#8EBFFF" offset="0%"></stop>
            <stop stop-color="#FFFFFF" offset="100%"></stop>
        </linearGradient>
        <polygon id="path-9" points="77.1935419 55.9763679 -0.000304657063 55.9763679 -0.000304657063 0.449665619 77.1935419 0.449665619"></polygon>
        <polygon id="path-11" points="0 55.976595 0 0.450020535 77.1935419 0.450020535 77.1935419 55.976595"></polygon>
        <polygon id="path-13" points="0 61.0813754 0 0.538434784 90.6354448 0.538434784 90.6354448 61.0813754"></polygon>
        <path d="M4.00500972,0.278876812 C2.82990615,1.04097176 1.64968538,1.88609366 0.46812495,2.83862319 C9.75897492,9.81373875 19.4424703,11.8189034 28.7468134,15.1113835 L28.8843965,15.1113841 L28.8843965,0.278876812 L4.00500972,0.278876812 Z" id="path-15"></path>
        <path d="M49.7610891,11.6724825 C44.0301495,14.680187 38.283919,17.7161207 33.6214271,24.0550725 C23.3657338,15.7963723 11.9302308,14.5615935 0.624185167,9.7359945 L0.624185167,0.384756521 L49.7610891,0.384756521 L49.7610891,11.6724825 Z" id="path-17"></path>
        <polygon id="path-19" points="28.8134878 0.260127298 0 0.260127298 0 36.8420636 28.8134878 36.8420636 57.6269756 36.8420636 57.6269756 0.260127298"></polygon>
        <path d="M21.7880498,3.89998071 C14.1471305,6.21123124 6.69610226,7.02441807 0.0693948073,12.3670249 L0.0693948073,0.315799751 L21.7880498,0.315799751 L21.7880498,3.89998071 Z" id="path-21"></path>
        <path d="M16.4409129,0.074874982 C20.314336,1.8672264 24.2301829,3.62184525 26.4594762,7.42460619 C17.5947779,13.6090198 8.55669538,13.7368273 0.324305339,17.1092757 L0.324305339,0.074874982 L16.4409129,0.074874982 Z" id="path-23"></path>
    </defs>
    <g id="Page-1" stroke="none" stroke-width="1" fill="none" fill-rule="evenodd">
        <g id="Group-2">
            <rect id="Rectangle" fill="#5CB9E9" x="0" y="0" width="635" height="474"></rect>
            <g id="安裝瀏覽器插件--Eagle" transform="translate(1.000000, 0.000000)">
                <g id="Page-1" transform="translate(501.000000, 243.000000)">
                    <g id="Group-3" transform="translate(0.000000, 0.387939)" fill="#FFBDA3">
                        <path d="M8.0352469,43.3231591 L7.50403323,26.2558037 C7.50403323,26.2558037 -3.47660961,17.6433565 1.12835571,7.62192215 C5.73332104,-2.39951225 17.2451776,0.419446948 20.4335732,3.23742153 C22.6864982,5.23028685 27.2435763,13.9569496 29.7192324,18.8967743 C30.7014765,20.855178 29.8684622,23.1483516 27.7825855,24.2373383 L26.6121336,24.8497702 C24.7734885,25.8097721 23.6910154,27.5938985 23.8001536,29.4794404 L24.6832824,43.3231591 L8.0352469,43.3231591 Z" id="Fill-1"></path>
                    </g>
                    <g id="Group-6" transform="translate(0.000000, 0.387939)" fill="#133E57">
                        <path d="M14.4115926,18.26977 C14.4115926,18.26977 8.2809193,15.7432422 10.5149121,12.319728 C13.1720941,8.24833563 16.8917033,13.7287153 16.8917033,13.7287153 C16.8917033,13.7287153 19.5923178,7.80427326 18.3906836,1.96746219 C13.8213552,-0.147495665 5.01456781,-0.835743125 1.12791025,7.62211909 C-3.12068534,16.8706289 5.89658294,24.9129827 7.31426636,26.0994464 C9.86119638,24.2454122 13.7111033,21.0582061 14.4115926,18.26977" id="Fill-4"></path>
                    </g>
                </g>
                <g id="Group" transform="translate(272.933133, 148.889836) rotate(11.000000) translate(-272.933133, -148.889836) translate(220.933133, 106.889836)">
                    <g id="Page-1" transform="translate(51.899066, 41.912405) rotate(21.000000) translate(-51.899066, -41.912405) translate(7.399066, 14.412405)">
                        <g id="Group-10" transform="translate(0.000000, 0.239716)">
                            <g id="Group-5">
                                <g id="Fill-3-Clipped">
                                    <mask id="mask-2" fill="white">
                                        <use xlink:href="#path-1"></use>
                                    </mask>
                                    <g id="path-1"></g>
                                    <path d="M-0.000124493214,33.5535296 C20.3725675,45.293146 38.9724761,42.9346744 58.680997,53.9399198 C66.9990109,36.6377731 83.3219388,34.8428349 88.4155786,14.5011607 C65.0233035,7.88436943 53.544407,14.0253388 32.111655,0.37555536 C25.1033097,19.8825348 8.27867424,16.0106055 -0.000124493214,33.5535296" id="Fill-3" fill="#FFFFFF" mask="url(#mask-2)"></path>
                                </g>
                            </g>
                            <path d="M56.6673814,47.1814709 C40.9669197,37.7636364 23.542227,41.7244242 6.31485602,31.7017797 C14.7897316,18.5513226 29.8328691,22.0810041 34.3999026,7.52773232 C52.8628688,18.997334 62.7943149,11.6318398 82.4549059,17.5429241 C79.0276076,32.9532486 63.4977016,33.9994837 56.6673814,47.1814709" id="Fill-6" fill="#E1E1E1"></path>
                            <path d="M63.6725524,25.0268005 C60.5234964,27.2551377 54.5988643,27.5561094 50.9804691,27.5968123 C47.3620738,27.6380884 46.5298367,26.5035684 49.3191073,24.6518758 C52.1077551,22.8001832 56.6747888,20.8453003 59.8051706,20.6349067 C62.9343076,20.4250865 66.8216081,22.7984633 63.6725524,25.0268005" id="Fill-8" fill="#FFFFFF"></path>
                        </g>
                        <g id="Group-19" transform="translate(6.224659, 22.024336)">
                            <g id="Group-13" transform="translate(0.000000, 4.586237)">
                                <g id="Fill-11-Clipped">
                                    <mask id="mask-4" fill="white">
                                        <use xlink:href="#path-3"></use>
                                    </mask>
                                    <g id="path-3"></g>
                                    <path d="M24.394881,0.0404735284 C23.0018019,2.56978241 30.2105815,11.640783 31.861984,14.5771203 C20.0550476,13.7819817 10.3066065,10.8450711 0.0906933064,5.33126945 C8.18088483,3.37065378 15.9517512,0.18150027 24.394881,0.0404735284" id="Fill-11" fill="#B6CAD3" mask="url(#mask-4)"></path>
                                </g>
                            </g>
                            <g id="Group-16" transform="translate(10.581922, 0.000000)">
                                <g id="Fill-14-Clipped">
                                    <mask id="mask-6" fill="white">
                                        <use xlink:href="#path-5"></use>
                                    </mask>
                                    <g id="path-5"></g>
                                    <path d="M52.3006574,0.0241923923 C55.2480343,2.86823169 57.8076146,31.2220594 55.7130163,34.9701603 C33.1498662,21.3421616 22.9464025,23.2225181 0.609207542,15.2287096 C15.4487986,9.62261004 40.8883643,6.70003145 52.3006574,0.0241923923" id="Fill-14" fill="#CFD8DC" mask="url(#mask-6)"></path>
                                </g>
                            </g>
                        </g>
                    </g>
                </g>
                <g id="Group-8" transform="translate(433.000000, 69.000000)">
                    <g id="Group-4" transform="translate(29.841018, 127.239407)">
                        <ellipse id="Oval" fill="#D8D8D8" cx="78.2242013" cy="269.386062" rx="78.2242013" ry="6.9789135"></ellipse>
                        <g id="Page-1" transform="translate(12.270464, 0.000000)">
                            <g id="Group" transform="translate(0.000000, 142.369835)">
                                <path d="M52.9028324,14.0576529 C57.5376692,9.29893221 62.7154439,5.04353095 67.6797824,0.577819187 C67.8636179,0.412422456 68.038106,0.239896553 68.2196047,0.0730739872 L25.4887473,0.0730739872 L33.1755655,56.1069202 L0.000261444523,103.501639 L10.7998204,118.840047 C11.3489901,119.618553 12.4052655,119.959327 13.3657283,119.665605 C14.4897736,119.322692 15.1207345,118.232642 14.7990223,117.188932 L10.9228967,104.613077 C10.9228967,104.613077 45.1755084,69.4862328 46.9305144,60.9205356 C49.3577668,49.0718558 48.5492018,14.3898721 48.5492018,14.3898721 L52.9028324,14.0576529 Z" id="Fill-1" fill="#504C84"></path>
                                <path d="M152.349158,87.4206655 L145.737782,90.9815597 C145.737782,90.9815597 120.066525,42.0920333 114.370386,36.6553105 C108.675044,31.2192942 67.5586567,0 67.5586567,0 L49.0818518,11.2090457 C49.2331965,11.2973616 49.3885241,11.375786 49.5374793,11.4690476 C53.8069944,14.1446641 58.2525473,16.6704969 62.4320523,19.4563316 C62.6534934,19.6039957 62.8422762,19.7594316 63.011145,19.9205197 L103.173264,48.7835474 L141.046094,100.496355 L155.177712,91.9233599 C156.580439,91.0719953 156.869587,89.3417115 155.805394,88.1667574 C154.976981,87.2518055 153.559119,86.945173 152.349158,87.4206655" id="Fill-4" fill="#2D2863"></path>
                            </g>
                            <polygon id="Fill-5" fill="#428BFA" points="15.7215306 81.5996042 23.1683384 142.799307 70.0438926 142.799307 69.7667606 81.5996042"></polygon>
                            <path d="M22.1123967,10.0427701 C22.1123967,10.0427701 28.2251053,-1.26679607 32.1148061,0.117437967 C36.006759,1.50354259 31.2814596,7.04234932 31.2814596,7.04234932 C31.2814596,7.04234932 33.7837511,4.96412767 34.8941289,5.42616257 L30.1710818,11.6570863 L22.1123967,10.0427701 Z" id="Fill-13" fill="#FFBDA3"></path>
                            <path d="M29.8898054,113.656591 C29.8898054,113.656591 3.30916481,83.2423198 6.38260373,52.273043 C9.22574407,23.6625373 22.3988215,8.74281474 22.3988215,8.74281474 L31.6986959,10.9449951 L17.4913686,52.273043 L28.3405242,85.7794851 L29.8898054,113.656591 Z" id="Fill-7" fill="#428BFA"></path>
                        </g>
                    </g>
                    <g id="t2" transform="translate(82.461798, 80.825653) rotate(-33.000000) translate(-82.461798, -80.825653) translate(20.961798, 24.825653)">
                        <ellipse id="Oval" fill="#428BFA" cx="61.3952185" cy="55.8313081" rx="61.3952185" ry="55.8313081"></ellipse>
                        <g id="Group" transform="translate(20.976698, 17.679915)">
                            <path d="M40.5809118,76.7165967 C27.2445064,71.268336 33.4214333,40.5727888 53.5367069,34.8602719 C53.8957297,39.5914327 54.9777559,54.0944489 72.2916162,62.9743144 C65.1657207,71.0468989 52.6779571,76.5982454 40.5809118,76.7165967 Z" id="Shape" fill="url(#linearGradient-7)"></path>
                            <path d="M54.438088,26.9095371 C53.6608066,30.1205299 53.5979723,32.1120799 53.5356629,34.8543863 C29.2068476,50.1225348 37.1385041,70.6718205 40.5985387,76.7162518 C30.1748832,75.9044783 23.8861216,73.9125387 15.5055652,68.4107103 C9.89633996,54.2467613 21.2785732,19.1973562 54.438088,26.9095371 Z" id="Shape" fill="url(#linearGradient-8)"></path>
                            <path d="M59.0286458,27.2756413 C59.5699452,26.6412058 67.0753439,26.8715685 73.5311656,29.8110383 C67.5840023,30.0039159 61.7731005,31.6635448 58.3785305,32.8726279 C58.2675893,31.440893 58.5259537,29.0844066 59.0286458,27.2756413 Z" id="Shape" fill="#8EBFFF"></path>
                            <path d="M29.8748165,40.568304 C17.6742516,47.7997929 15.6582808,63.9260026 15.5054932,68.4092598 C-7.71800712,52.0584957 1.37992047,27.9862504 10.2635843,20.1898269 C6.55126116,21.0894478 2.003206,23.8940512 0.160821621,24.6768667 C6.89974044,7.94454554 39.951521,-11.5941032 66.5192438,9.13781065 C56.1594198,17.7263813 55.0655498,24.5935015 54.4392224,26.9091796 C42.660294,25.7473664 22.6638085,34.2964164 18.9973605,42.5702305 C23.801421,40.8654456 25.2438112,40.568304 29.8748165,40.568304 Z" id="Shape" fill="#FFFFFF"></path>
                            <path d="M70.0049012,11.8885056 C79.2754619,17.7190748 82.7562397,30.1505257 81.1706055,37.6024884 C76.531426,31.8064858 69.3078234,27.5403927 59.0277871,27.2738042 C60.740198,21.0110724 64.3992363,15.8826395 70.0049012,11.8885056 Z" id="Shape" fill="#FFFFFF"></path>
                        </g>
                    </g>
                    <path d="M106.531411,132.936039 C106.003262,131.864466 101.123771,123.293617 97.1658675,124.57881 C93.2101015,125.86574 97.5614439,130.150296 97.5614439,130.150296 C97.5614439,130.150296 93.4731064,127.472232 94.3968314,128.863366 L99.2763219,135.614104 L106.531411,132.936039 Z" id="Fill-15" fill="#FFBDA3"></path>
                    <path d="M101.077082,211.997361 L114.140642,178.726112 L99.3736405,136.469283 L107.893153,133.067951 C107.893153,133.067951 124.649039,159.78455 124.93448,181.63929 C125.21762,203.497967 102.497385,237.981728 102.497385,237.981728 L101.077082,211.997361 Z" id="Fill-10" fill="#428BFA"></path>
                </g>
                <g id="Group-2" transform="translate(344.134258, 156.729166) rotate(11.000000) translate(-344.134258, -156.729166) translate(298.134258, 115.229166)">
                    <path d="M61.9269104,66.3385909 C41.3091108,56.6717155 27.8033277,56.4538716 10.938226,41.4197789 C24.3817485,29.6938062 30.1111024,30.3338301 37.4925192,16.4847782 C48.031849,19.7244373 66.2120351,16.583187 83.8884962,20.7928639 C74.4473815,37.7058041 74.4358818,49.2138921 61.9269104,66.3385909" id="Fill-27" fill="#C9C9C9" transform="translate(47.413361, 41.411685) rotate(35.000000) translate(-47.413361, -41.411685) "></path>
                    <path d="M58.8280658,66.3385911 C38.2102662,56.6717157 24.7044832,56.4538718 7.83938147,41.4197791 C21.282904,29.6938063 27.0122579,30.3338303 34.3936745,16.4847784 C44.9330046,19.7244375 63.1131905,16.5831872 80.7896516,20.7928641 C71.3485368,37.7058043 71.3370375,49.2138923 58.8280658,66.3385911" id="Fill-29" fill="#22C8FC" transform="translate(44.314517, 41.411685) rotate(35.000000) translate(-44.314517, -41.411685) "></path>
                    <path d="M54.4403807,56.2884835 C41.4999057,48.8197469 27.8074896,49.3341488 16.7979421,39.1803855 C27.4998298,29.8651106 29.0995762,31.6222305 35.5737399,21.467971 C35.7464461,21.5283977 59.9741751,21.258177 68.5410966,23.0204993 C61.9468437,34.8329483 63.9251747,45.0676131 54.4403807,56.2884835" id="Fill-31" fill="#001D26" transform="translate(42.669519, 38.878227) rotate(35.000000) translate(-42.669519, -38.878227) "></path>
                    <path d="M49.9433439,34.9884056 C51.7715596,35.5138769 52.8177643,35.1133128 53.5416531,33.6359635 C54.265542,32.1586143 53.6103434,31.3574861 51.7028697,31.107672 C51.3118638,31.0559865 50.5668395,30.862165 50.1124274,30.862165 C49.7478412,32.0853929 49.1930356,33.3689209 48.4057405,34.4629345 C48.839017,34.6136845 49.5417703,34.87642 49.9433439,34.9884056 M47.2274393,28.9670233 C48.765043,28.9885589 51.1269288,28.8119662 52.5377195,28.928259 C56.352667,29.2469874 56.8229305,31.6073003 55.7608747,34.294956 C54.6935348,36.9826118 52.0410367,37.8655755 48.8443008,36.6552692 C48.3423339,36.4700619 47.6448644,36.1427192 47.1798848,35.8627552 C46.0015836,36.9136976 44.548522,37.9947898 43.0901766,38.770075 C42.2764619,38.0507827 41.4099085,37.3917902 40.7599937,36.5648192 C44.4639802,34.6782917 46.7730275,32.6280927 47.2274393,28.9670233" id="Fill-33" fill="#22C8FC" fill-rule="nonzero" transform="translate(48.507105, 33.829179) rotate(35.000000) translate(-48.507105, -33.829179) "></path>
                    <path d="M44.0014228,43.4598492 C44.846247,43.1701476 45.7723862,42.8854531 46.6755738,42.6274638 C47.1067339,43.3110641 47.9796741,43.962475 48.7885707,44.226902 C49.5974673,44.4913292 50.80576,44.9395913 51.2781889,44.1093523 C51.7506178,43.279113 50.5545773,42.800331 49.6427192,42.0478225 C48.7310553,41.291022 47.8234134,39.9643563 48.7198578,38.5330163 C49.6110494,37.097623 50.865992,35.4321375 53.0098446,36.3491677 C54.4015981,36.9478839 55.2434889,38.2859947 56.1942778,39.2595347 C55.705857,39.7221033 55.2789042,40.1477142 54.6963203,40.5287372 C54.1694582,39.9178606 53.3350079,39.0163288 52.537587,38.7385491 C51.7345256,38.4652998 51.2088938,38.4283422 50.957653,39.296016 C50.706606,40.1593977 51.7180344,40.6334114 52.593912,41.4603125 C53.4752366,42.2869748 55.553766,43.5666683 54.5686454,45.2760263 C53.5837189,46.9810923 49.1070305,46.0805147 47.2215501,45.4605773 C46.2521578,45.1389252 44.3036565,44.5902809 44.0014228,43.4598492" id="Fill-35" fill="#22C8FC" transform="translate(50.097850, 41.173020) rotate(35.000000) translate(-50.097850, -41.173020) "></path>
                </g>
                <g id="Group-12" transform="translate(116.783129, 70.349828) rotate(6.000000) translate(-116.783129, -70.349828) translate(5.783129, 11.349828)">
                    <path d="M14.4706373,97.066315 L42.939858,91.3939763 C42.939858,91.3939763 49.4830447,97.5859836 52.0218885,99.5143499 C59.1306445,104.917828 71.9953592,108.929428 71.9953592,108.929428 L43.5380823,117.172333 C43.5380823,117.172333 27.5170202,107.920704 24.5533335,105.076209 C19.7033753,100.416284 14.4706373,97.066315 14.4706373,97.066315" id="Fill-37" fill="#D3D3D3" transform="translate(43.232998, 104.283155) rotate(1.000000) translate(-43.232998, -104.283155) "></path>
                    <path d="M37.4869566,88.161763 C37.4869566,88.161763 44.6955688,93.8082037 47.4299397,95.5272763 C55.0791309,100.338137 68.1357738,103.266446 68.1357738,103.266446 L41.6156032,113.93455 C41.6156032,113.93455 24.7756958,106.023327 21.5043553,103.42426 C17.9342632,100.587368 14.3003579,98.1973816 10.6026395,96.2542992 L37.4869566,88.161763 Z" id="Fill-41" fill="#FFFFFF" transform="translate(39.369207, 101.048157) rotate(1.000000) translate(-39.369207, -101.048157) "></path>
                    <path d="M112.04959,75.8448025 L142.493563,54.8121779 C142.493563,54.8121779 154.020193,59.4772101 158.199641,60.6884046 C169.925111,64.0848023 187.652965,62.9061073 187.652965,62.9061073 L158.77443,87.1997111 C158.77443,87.1997111 134.133392,83.2603 128.885444,81.0957285 C120.299487,77.5489097 112.04959,75.8448025 112.04959,75.8448025" id="Fill-43" fill="#FFFFFF" transform="translate(149.851277, 71.005945) rotate(35.000000) translate(-149.851277, -71.005945) "></path>
                    <path d="M1.55342044,39.6356413 L53.691,27.2997902 C53.691,27.2997902 67.4184283,35.2810509 72.4971943,37.5345968 C86.7181542,43.8353375 106.241078,47.111338 106.241078,47.111338 L60.6793736,65.1864451 C60.6793736,65.1864451 49.4712719,65.6729116 38.4905325,61.1309974 C34.3259458,59.4084672 28.1465632,52.8807502 21.9110816,49.1898173 C11.6992687,43.1470617 1.55342044,39.6356413 1.55342044,39.6356413" id="Fill-45" fill="#FFFFFF" transform="translate(53.897249, 46.250688) rotate(35.000000) translate(-53.897249, -46.250688) "></path>
                    <path d="M44.2776808,57.788424 C44.2776808,57.788424 44.7423442,58.6587575 46.7084504,59.3349429 C48.7081723,60.0179418 51.3667064,60.2785473 51.2150465,60.3100422 C44.1432941,61.617992 33.8415078,57.6197242 33.8415078,57.6197242 L30.3984302,56.2749408 L44.2776808,57.788424 Z" id="Fill-47" fill="#D3D3D3" transform="translate(40.809843, 58.423926) rotate(35.000000) translate(-40.809843, -58.423926) "></path>
                    <path d="M173.983592,60.6024479 L196.512227,54.6126308 C196.512227,54.6126308 201.398506,59.9124815 203.316408,61.5451949 C208.67511,66.1235025 218.602546,69.2730868 218.602546,69.2730868 L195.975478,77.5516696 C195.975478,77.5516696 183.787456,69.8389761 181.572231,67.4030838 C177.956193,63.4138665 173.983592,60.6024479 173.983592,60.6024479" id="Fill-49" fill="#D3D3D3" transform="translate(196.293069, 66.082150) rotate(35.000000) translate(-196.293069, -66.082150) "></path>
                    <path d="M170.837095,60.3552273 L193.620344,52.2023738 C193.620344,52.2023738 199.432169,56.979184 201.648905,58.411638 C207.853372,62.4288755 218.657959,64.5766127 218.657959,64.5766127 L196.077184,75.0103682 C196.077184,75.0103682 182.305677,68.5605598 179.670563,66.3593132 C175.360071,62.7555812 170.837095,60.3552273 170.837095,60.3552273" id="Fill-51" fill="#FFFFFF" transform="translate(194.747527, 63.606371) rotate(35.000000) translate(-194.747527, -63.606371) "></path>
                </g>
                <g id="Page-1" transform="translate(324.438945, 202.010784) rotate(11.000000) translate(-324.438945, -202.010784) translate(284.938945, 172.510784)">
                    <g id="Group-3" transform="translate(0.808964, 2.496251)">
                        <g id="Fill-1-Clipped">
                            <mask id="mask-10" fill="white">
                                <use xlink:href="#path-9"></use>
                            </mask>
                            <g id="path-10"></g>
                            <path d="M38.3046814,54.845498 C26.9120434,47.6223369 13.4023469,40.6164524 2.5986346,32.8489949 C-0.23435683,30.8124862 -1.07244339,28.3406876 1.71120125,25.7679844 C12.0691745,16.1916063 25.3022053,13.2594758 35.2807745,2.45235413 C37.9616809,-0.451788212 40.7420894,0.0763046277 43.2247995,2.29105381 C52.6912947,10.7375931 65.3815108,13.8656409 75.3026434,21.6817095 C77.9034624,23.7307392 77.7562308,27.0657523 75.2613864,29.2694536 C65.9777171,37.4714643 53.1022483,43.8999085 45.7164084,53.6014969 C43.7312109,56.2088169 41.291376,56.7391193 38.3046814,54.845498" id="Fill-1" fill="#DCE4E9" mask="url(#mask-10)"></path>
                        </g>
                    </g>
                    <g id="Group-6" transform="translate(0.000000, 0.286658)">
                        <g id="Fill-4-Clipped">
                            <mask id="mask-12" fill="white">
                                <use xlink:href="#path-11"></use>
                            </mask>
                            <g id="path-12"></g>
                            <path d="M38.3046814,54.845498 C26.9120434,47.6223369 13.4023469,40.6164524 2.5986346,32.8489949 C-0.23435683,30.8124862 -1.07244339,28.3406876 1.71120125,25.7679844 C12.0691745,16.1916063 25.3022053,13.2594758 35.2807745,2.45235413 C37.9616809,-0.451788212 40.7420894,0.0763046277 43.2247995,2.29105381 C52.6912947,10.7375931 65.3815108,13.8656409 75.3026434,21.6817095 C77.9034624,23.7307392 77.7562308,27.0657523 75.2613864,29.2694536 C65.9777171,37.4714643 53.1022483,43.8999085 45.7164084,53.6014969 C43.7312109,56.2088169 41.291376,56.7391193 38.3046814,54.845498" id="Fill-4" fill="#FFFFFF" mask="url(#mask-12)"></path>
                        </g>
                    </g>
                    <path d="M44.7444381,15.2185014 C47.5960358,16.7011385 50.9823586,16.6186471 53.9690532,17.4649214 C56.9557476,18.3104591 59.2046671,20.2504822 61.627514,21.8826352 C60.1738058,26.5190989 59.096266,31.0075197 59.0582448,35.8347448 C43.8610497,34.2489933 39.9068342,31.2056467 23.9872346,37.6966958 C25.0194724,30.8845189 26.3405104,24.0583483 27.2190452,17.2469081 C35.4963633,17.9385109 37.0325857,18.5144783 44.7444381,15.2185014" id="Fill-7" fill="#FDB300"></path>
                    <path d="M34.3254692,23.3001631 C28.6335994,25.7432369 26.0473419,32.7255524 23.9877199,37.6971375 C25.0199578,30.8842243 26.3401868,24.0587902 27.2195306,17.245877 C29.2961408,19.2735473 31.3751779,22.280804 34.3254692,23.3001631" id="Fill-9" fill="#EA6C00"></path>
                    <path d="M52.3932723,29.3081949 C41.9260889,30.959498 33.1561118,32.1769838 23.9873155,37.697285 C39.9061062,31.2054992 43.8611306,34.2488461 59.0583257,35.8345976 C56.6840168,33.7693643 54.5637223,31.5465133 52.3932723,29.3081949" id="Fill-11" fill="#EA6C00"></path>
                    <path d="M34.3254692,23.3001631 C41.9499534,25.8758125 45.3645899,22.3898106 52.3928678,29.3087841 C41.9264934,30.9593505 33.1565162,32.1768367 23.9877199,37.6971375 C26.0473419,32.7255524 28.6335994,25.7432369 34.3254692,23.3001631" id="Fill-13" fill="#FDAD00"></path>
                    <path d="M54.0226066,17.389206 C50.808593,16.8611131 47.7159241,16.5333568 44.7357013,15.2304331 C41.517643,18.6980218 39.8002128,22.7865063 34.3251456,23.2998685 C41.1592721,23.8294344 47.859111,19.6098474 54.0226066,17.389206" id="Fill-15" fill="#FDD231"></path>
                    <path d="M54.0226066,17.389206 C56.7819823,18.5529252 59.3237468,20.0834369 61.6187772,21.894567 C58.5333891,24.2794549 54.931073,26.420551 52.3933532,29.3084895 C52.0503527,25.3282753 53.2233503,21.2891384 54.0226066,17.389206" id="Fill-17" fill="#FDD231"></path>
                    <path d="M59.0584875,35.8348922 C59.0908458,31.0150325 60.1853742,26.503779 61.6180492,21.894567 C58.5334699,24.2801914 54.930345,26.420551 52.3934341,29.3084895 C54.5630752,31.5468079 56.6833696,33.7689223 59.0584875,35.8348922" id="Fill-19" fill="#FDAD00"></path>
                    <path d="M27.2193688,17.246098 C35.4910243,17.9465391 37.0434258,18.4989374 44.7358631,15.2309487 C41.5178048,18.6985374 39.8003746,22.7862853 34.3253074,23.3003841 C31.3750161,22.2810249 29.295979,19.2737682 27.2193688,17.246098" id="Fill-21" fill="#FDAD00"></path>
                    <path d="M54.0226066,17.389206 C47.859111,19.6091109 41.1592721,23.8294344 34.3251456,23.2998685 C41.9504388,25.8755179 45.3642663,22.389516 52.3933532,29.3084895 C52.0495437,25.3282753 53.2233503,21.2891384 54.0226066,17.389206" id="Fill-23" fill="#FEEEB7"></path>
                </g>
                <g id="Group-9" transform="translate(205.096978, 123.267209) rotate(-4.000000) translate(-205.096978, -123.267209) translate(158.096978, 79.767209)">
                    <path d="M56.016911,68.2340479 C38.3223378,55.5237595 25.5081028,57.7945309 5.8815174,39.8149802 C22.8791352,24.6818376 35.0450283,32.2633118 48.9312827,22.9601313 C50.8312722,25.3822146 78.133582,29.5340936 85.4630527,33.2685644 C76.2023486,44.3102394 64.1856997,56.9614321 56.016911,68.2340479" id="Fill-53" fill="#C1CDDD" transform="translate(45.672285, 45.597090) rotate(35.000000) translate(-45.672285, -45.597090) "></path>
                    <path d="M58.177444,65.5395551 C40.6360024,53.2134781 25.5011794,57.0237208 5.86254814,39.4254146 C23.1894259,24.2778587 36.744028,29.5890224 50.9052949,20.2738033 C52.8463252,22.69409 80.968977,30.1651292 88.447675,33.8930676 C79.0121003,44.9389984 66.5026568,54.2600919 58.177444,65.5395551" id="Fill-55" fill="#FFB607" transform="translate(47.155112, 42.906679) rotate(35.000000) translate(-47.155112, -42.906679) "></path>
                    <path d="M58.0841301,54.892941 C57.9941389,54.8019126 26.0819059,42.8674021 18.0349248,37.8490844 C27.716676,30.1062206 38.4231593,27.6727 50.5832416,25.7257045 C62.8279544,25.7365739 69.3305407,30.111879 79.1686396,34.6457228 C72.3765239,43.0840524 63.4071508,48.3920722 58.0841301,54.892941" id="Fill-57" fill="#261300" transform="translate(48.601782, 40.309323) rotate(35.000000) translate(-48.601782, -40.309323) "></path>
                    <path d="M51.3379085,35.8285875 C51.5670129,35.4810619 52.3959551,34.5475129 52.6208942,34.3771574 C53.4706642,33.7298059 56.5156727,32.830328 56.5906523,32.0807631 C56.5906523,32.0705417 56.5323347,32.0705417 56.4990105,32.0739486 C53.9372045,32.3158538 51.9502426,33.0040907 49.5050714,33.7740983 C48.8635784,33.975118 47.868015,34.401007 47.1765355,34.6531336 C48.5844875,34.9836236 49.9507839,35.4129198 51.3379085,35.8285875 M49.6966861,38.3498514 C47.8430216,37.4605948 45.8310666,36.8507216 43.9524086,36.0023502 C42.282028,36.6871802 40.6158125,37.3822313 38.9537627,38.0772824 C37.8332326,37.5082944 36.6918751,36.7893937 35.6963117,36.0841209 C42.7110782,33.9342325 49.6883553,32.4998379 57.0155372,31.303941 C58.3110197,31.44704 59.598171,31.6105814 60.8894879,31.7809369 C55.3618185,34.7791967 54.0371774,39.50827 51.5086953,44.3122996 C50.0840813,43.6887978 48.6844604,43.031225 47.2848395,42.370245 C48.0679608,41.0244353 48.921896,39.7024752 49.6966861,38.3498514" id="Fill-59" fill="#FFB607" fill-rule="nonzero" transform="translate(48.292900, 37.808120) rotate(35.000000) translate(-48.292900, -37.808120) "></path>
                    <path d="M58.1187425,43.9729009 C59.0960032,44.7550749 60.0732639,45.5372489 61.0353142,46.3370393 C58.1339526,49.2367209 55.3124449,52.1716352 52.0346288,54.7189859 C50.7949904,54.16935 49.5515497,53.6338073 48.2928986,53.1264513 C51.8292897,50.3571323 54.2857508,46.3687491 58.1187425,43.9729009 M60.5333749,42.0033725 C61.3965585,41.4431665 62.5031068,41.7637875 63.2370029,42.32047 C63.9708993,42.8736291 64.3967871,43.6839897 63.6400756,44.3992208 C62.8833638,45.114452 61.6817515,44.6282357 60.9896835,44.0715533 C60.2976155,43.5183941 59.6701912,42.5671015 60.5333749,42.0033725" id="Fill-61" fill="#FFB607" fill-rule="nonzero" transform="translate(56.165766, 48.214807) rotate(35.000000) translate(-56.165766, -48.214807) "></path>
                </g>
                <g id="Page-1" transform="translate(115.000000, 136.000000)">
                    <g id="Group-8" transform="translate(0.000000, 0.084753)">
                        <g id="Group-3">
                            <g id="Fill-1-Clipped">
                                <mask id="mask-14" fill="white">
                                    <use xlink:href="#path-13"></use>
                                </mask>
                                <g id="path-14"></g>
                                <path d="M-6.79426634e-05,33.4161724 C16.8137029,46.232042 36.3818693,48.4761434 52.5461086,61.0813754 C63.0860538,45.0454913 79.3854986,42.679868 90.6354448,27.9576652 C73.6416259,18.1125348 54.3119384,11.3447087 38.0444263,0.537998551 C28.7790854,21.4179261 12.8621576,18.3138246 -6.79426634e-05,33.4161724" id="Fill-1" fill="#FFFFFF" mask="url(#mask-14)"></path>
                            </g>
                        </g>
                        <path d="M51.2863836,53.3448652 C37.6699945,42.3798651 21.9745597,43.7969957 7.26225539,32.7516043 C20.133993,22.3755174 32.8467447,24.7448797 40.5167921,8.3413145 C53.9456595,16.5468362 69.4535724,21.266242 83.0672437,29.2873001 C73.8732426,41.1883289 60.4749492,40.8524303 51.2863836,53.3448652" id="Fill-4" fill="#E1E1E1"></path>
                        <path d="M49.0033017,24.5741098 C45.9737385,25.7980519 41.3713023,25.1362258 38.5482846,24.2942983 C35.7252672,23.4517475 37.5400156,21.9529794 39.4954054,20.8200229 C41.4507952,19.68582 45.434953,18.0437185 48.1886693,18.9660374 C50.9423854,19.8883562 52.0328653,23.3495446 49.0033017,24.5741098" id="Fill-6" fill="#FFFFFF"></path>
                    </g>
                    <g id="Group-17" transform="translate(6.794265, 29.374610)">
                        <g id="Group-11" transform="translate(0.000000, 0.623189)">
                            <g id="Fill-9-Clipped">
                                <mask id="mask-16" fill="white">
                                    <use xlink:href="#path-15"></use>
                                </mask>
                                <g id="path-16"></g>
                                <path d="M28.3524055,0.278876812 C26.6844131,4.78702173 28.2681566,10.4586594 28.8843965,15.1113841 C17.530498,14.1628913 9.29652667,9.1910942 0.468057006,2.83831159 C9.66681419,2.2307029 19.36495,2.13286232 28.3524055,0.278876812" id="Fill-9" fill="#B6CAD3" mask="url(#mask-16)"></path>
                            </g>
                        </g>
                        <g id="Group-14" transform="translate(10.870827, 0.000000)">
                            <g id="Fill-12-Clipped">
                                <mask id="mask-18" fill="white">
                                    <use xlink:href="#path-17"></use>
                                </mask>
                                <g id="path-18"></g>
                                <path d="M49.4341987,0.384756521 C49.8826203,12.601742 49.9804576,25.2262928 49.0068392,37.3915538 C31.8458813,23.149829 19.162345,20.7673797 0.624189249,11.0350464 C17.1947254,8.37465508 32.3017767,3.25703187 49.4341987,0.384756521" id="Fill-12" fill="#CFD8DC" mask="url(#mask-18)"></path>
                            </g>
                        </g>
                    </g>
                </g>
                <g id="Page-1" transform="translate(419.623527, 164.974091) rotate(19.000000) translate(-419.623527, -164.974091) translate(390.123527, 145.974091)">
                    <g id="Group-8" transform="translate(0.034269, 0.119618)">
                        <g id="Group-3">
                            <g id="Fill-1-Clipped">
                                <mask id="mask-20" fill="white">
                                    <use xlink:href="#path-19"></use>
                                </mask>
                                <g id="path-20"></g>
                                <path d="M19.4765778,36.8420636 C31.6359856,27.3602562 44.4705534,29.2860915 57.6269756,19.4485161 C51.4206536,9.44794256 41.5293409,9.43528974 34.8994612,0.260127298 C22.0383449,11.2580415 13.6872782,7.98728498 -0.000122533503,15.6604821 C5.37011248,25.3722733 13.2257353,28.4971502 19.4765778,36.8420636" id="Fill-1" fill="#FFFFFF" mask="url(#mask-20)"></path>
                            </g>
                        </g>
                        <path d="M20.0832003,32.4627705 C14.8963571,26.3574078 8.66675383,24.2056824 4.45282666,16.9217459 C16.4447722,10.5447196 23.1465379,14.428022 34.3461001,4.85020185 C38.9210925,11.5312682 49.19471,11.3861328 53.416806,18.5889423 C41.8798684,26.6376308 30.0492586,24.4278512 20.0832003,32.4627705 Z" id="Fill-4" fill="#E1E1E1"></path>
                        <path d="M22.5476758,17.7672527 C24.1446958,19.01765 22.7086031,19.5315782 21.0176408,19.9156288 C19.3266785,20.3000515 16.1354976,21.0666642 14.7030809,19.6834121 C13.2710728,18.3009044 14.3510013,15.9225445 16.4062966,15.5954316 C18.4615919,15.2683188 20.9506558,16.5172275 22.5476758,17.7672527" id="Fill-6" fill="#FFFFFF"></path>
                    </g>
                    <g id="Group-15" transform="translate(20.048074, 11.283879)">
                        <g id="Group-11" transform="translate(0.000000, 8.931408)">
                            <g id="Fill-9-Clipped">
                                <mask id="mask-22" fill="white">
                                    <use xlink:href="#path-21"></use>
                                </mask>
                                <g id="path-22"></g>
                                <path d="M21.7880498,5.31478401 C12.6519518,8.21674778 8.12515576,6.35529319 0.0693948073,13.4140837 C0.596288869,9.30228615 0.207449221,3.76257948 2.77003322,0.315799751 C9.54695282,0.395810292 15.6197132,2.789428 21.7880498,5.31478401 Z" id="Fill-9" fill="#B6CAD3" mask="url(#mask-22)"></path>
                            </g>
                        </g>
                        <g id="Group-14" transform="translate(6.943566, 0.000000)">
                            <g id="Fill-12-Clipped">
                                <mask id="mask-24" fill="white">
                                    <use xlink:href="#path-23"></use>
                                </mask>
                                <g id="path-24"></g>
                                <path d="M4.58071079,4.36939434 C14.5091921,0.937500272 29.6604598,2.61548881 36.1514678,0.074874982 C21.0933257,13.4582198 15.219478,11.501869 0.324305339,19.36858 C1.48265539,12.5855467 3.93659301,11.4631662 4.58071079,4.36939434" id="Fill-12" fill="#CFD8DC" mask="url(#mask-24)"></path>
                            </g>
                        </g>
                    </g>
                </g>
            </g>
        </g>
    </g>
</svg>