<?xml version="1.0" encoding="UTF-8"?>
<svg width="186px" height="186px" viewBox="0 0 186 186" version="1.1" xmlns="http://www.w3.org/2000/svg" xmlns:xlink="http://www.w3.org/1999/xlink">
    <!-- Generator: Sketch 52.6 (67491) - http://www.bohemiancoding.com/sketch -->
    <title>Shape</title>
    <desc>Created with Sketch.</desc>
    <g id="Page-1" stroke="none" stroke-width="1" fill="none" fill-rule="evenodd">
        <g id="wechat-mini-program" transform="translate(-7.000000, -7.000000)" fill="#1198CF" fill-rule="nonzero">
            <path d="M100,7.69230762 C49.0198692,7.69230762 7.69230762,49.0198692 7.69230762,100 C7.69230762,150.980131 49.0198692,192.307692 100,192.307692 C150.980131,192.307692 192.307692,150.980131 192.307692,100 C192.307692,49.0198692 150.980131,7.69230762 100,7.69230762 Z M130.769231,106.769231 C127.119114,108.022968 123.105017,106.377846 121.384615,102.923077 C119.692308,99.2307693 121.384615,96.6153846 124.769231,94.4615385 C126.03,93.6162987 127.369571,92.8949913 128.769231,92.3076924 C134.923077,88.7692309 140,84.1538463 136.923077,76.923077 C134.235511,70.4817719 127.214088,67.0038709 120.461538,68.7692309 C116.993006,68.8498827 113.698692,70.3055935 111.303793,72.8159088 C108.908895,75.3262241 107.609736,78.6853588 107.692308,82.1538461 L107.692308,120.461538 C105.60103,135.815522 92.4181783,147.218689 76.923077,147.076923 C60.1630062,145.844515 47.491996,131.392714 48.4615385,114.615385 C48.4615385,105.692308 56.7692309,99.2307691 67.6923076,93.6923076 C72.3076922,92.3076922 76.9230768,92.3076922 79.3846154,96.923077 C81.8461541,101.538462 77.2307693,104.923077 73.2307691,106.769231 C65.076923,110.307692 61.076923,116 64.923077,124.307692 C66.5531353,127.776086 69.5064833,130.445564 73.1214113,131.718019 C76.7363393,132.990473 80.7106367,132.759527 84.1538461,131.076923 C90.2840056,129.00103 94.087545,122.876686 93.2307691,116.461538 L93.2307691,81.6923076 C92.5351476,69.2008225 100.584463,57.8934506 112.615385,54.4615385 C124.63831,50.4180206 137.914699,53.8578123 146.461538,63.2307691 C151.82213,70.7097235 153.189635,80.3363082 150.123927,89.0122602 C147.05822,97.6882122 139.946234,104.318511 131.076923,106.769231 L130.769231,106.769231 Z" id="Shape"></path>
        </g>
    </g>
</svg>